<svg width="220" height="100" viewBox="0 0 220 100" fill="none" xmlns="http://www.w3.org/2000/svg">
<path d="M86.6462 47.9226H81.4533L73.7381 37.0917V47.9226H69.1387V26.5576H73.7381V36.9434L81.4533 26.5576H86.3494L78.4859 36.795L86.6462 47.9226Z" fill="white"/>
<path d="M93.4715 31.6021V37.8334H99.703V31.6021H104.154V47.9225H99.703V41.246H93.4715V47.9225H89.0205V31.6021H93.4715Z" fill="white"/>
<path d="M113.057 31.6021V38.1302C113.057 38.872 112.908 40.5041 112.76 43.1747L120.327 31.7504H125.668V48.0709H121.365V41.5426C121.365 40.3557 121.514 38.7237 121.662 36.6465L114.095 48.0709H108.754V31.7504H113.057V31.6021Z" fill="white"/>
<path d="M139.02 39.4655V31.4536H143.174V39.4655L148.961 31.4536H153.56L147.477 39.3171L154.154 47.7741H149.406L143.174 39.4655V47.7741H139.02V39.4655L132.789 47.9225H128.041L134.718 39.4655L128.634 31.602H133.234L139.02 39.4655Z" fill="white"/>
<path d="M160.979 31.6021V37.8334H167.211V31.6021H171.662V47.9225H167.211V41.246H160.979V47.9225H156.528V31.6021H160.979Z" fill="white"/>
<path d="M180.86 37.8334H183.086C185.608 37.8334 187.388 38.2786 188.575 39.0204C189.762 39.7623 190.356 41.0975 190.356 42.5812C190.356 44.3616 189.762 45.5486 188.575 46.4388C187.388 47.329 185.608 47.7741 183.234 47.7741H176.409V31.4536H180.86V37.8334ZM185.905 42.7296C185.905 42.1362 185.608 41.691 185.163 41.3943C184.718 41.0975 183.828 40.9492 182.937 40.9492H180.86V44.8067H182.937C184.866 44.8067 185.905 44.2133 185.905 42.7296ZM197.181 47.9225H192.73V31.602H197.181V47.9225Z" fill="white"/>
<path d="M206.231 31.6022V38.1303C206.231 38.8722 206.083 40.5043 205.935 43.1749L213.501 31.7505H218.843V48.071H214.54V41.5428C214.54 40.3558 214.688 38.7238 214.837 36.6467L207.27 48.071H201.929V31.7505H206.231V31.6022ZM217.507 24.4805C217.359 26.2609 216.617 27.5962 215.43 28.4864C214.243 29.3766 212.463 29.6733 210.237 29.6733C207.863 29.6733 206.231 29.2283 205.044 28.4864C204.006 27.7446 203.264 26.4093 203.116 24.4805H207.122C207.122 25.519 207.418 26.2609 207.863 26.5577C208.309 27.0028 209.05 27.1512 210.237 27.1512C211.276 27.1512 212.018 27.0028 212.463 26.5577C212.908 26.1126 213.205 25.3707 213.353 24.4805H217.507Z" fill="white"/>
<path d="M66.6172 75.3707H68.2492C69.7329 72.5517 70.7714 69.7327 71.6616 66.9137C72.5518 64.0947 73.1453 60.9789 73.4421 57.7148H85.905V75.3707H88.7239V85.4597H84.2729V79.2282H70.9198V85.4597H66.4688V75.3707H66.6172ZM77.0029 61.5724C76.7062 63.7979 76.1127 66.1719 75.3708 68.6941C74.629 71.2164 73.8871 73.4419 72.8486 75.3707H81.1572V61.5724H77.0029Z" fill="white"/>
<path d="M106.529 70.9199C106.529 73.5905 105.787 75.6676 104.452 77.1513C103.116 78.6349 101.039 79.3768 98.5168 79.3768C96.8847 79.3768 95.5494 79.0801 94.3624 78.3383C93.1755 77.5964 92.2853 76.7062 91.5435 75.3709C90.95 74.0356 90.5049 72.5519 90.5049 70.9199C90.5049 68.2493 91.2468 66.1721 92.5821 64.6884C93.9174 63.2047 95.9945 62.4629 98.5168 62.4629C100.149 62.4629 101.484 62.7596 102.671 63.5015C103.858 64.2433 104.748 65.1335 105.49 66.4688C106.232 67.8042 106.529 69.2878 106.529 70.9199ZM95.2527 70.9199C95.2527 72.5519 95.5494 73.7389 95.9945 74.6291C96.588 75.5193 97.3298 75.816 98.6651 75.816C99.8521 75.816 100.742 75.3709 101.187 74.6291C101.781 73.7389 101.929 72.5519 101.929 70.9199C101.929 69.2878 101.632 68.1009 101.187 67.2107C100.742 66.3205 99.8521 66.0237 98.6651 66.0237C97.4782 66.0237 96.5879 66.4688 96.1428 67.2107C95.6977 67.9525 95.2527 69.2878 95.2527 70.9199Z" fill="white"/>
<path d="M114.392 69.1394C116.024 69.1394 117.211 68.9911 117.953 68.6944C118.695 68.3976 118.991 67.9525 118.991 67.359C118.991 66.7655 118.695 66.4688 118.25 66.1721C117.804 65.8754 116.914 65.727 115.727 65.727C114.985 65.727 114.095 65.8753 113.205 66.0237C112.315 66.172 111.425 66.4688 110.534 66.7655L109.199 63.6498C110.386 63.2047 111.425 62.908 112.612 62.7596C113.65 62.6113 114.986 62.4629 116.321 62.4629C118.398 62.4629 120.03 62.908 121.217 63.6498C122.404 64.3917 122.997 65.4302 122.997 66.7655C122.997 68.5459 121.959 69.8813 119.733 70.3264V70.4747C121.069 70.7714 121.959 71.2165 122.552 71.9584C123.146 72.7002 123.442 73.2937 123.442 74.3323C123.442 75.3709 123.146 76.2611 122.404 77.0029C121.662 77.7448 120.772 78.3383 119.585 78.7834C118.398 79.2285 116.914 79.3768 115.282 79.3768C112.612 79.3768 110.386 79.0801 109.051 78.3383V74.7774C109.941 75.2225 110.831 75.5192 111.87 75.6676C112.908 75.9643 113.799 75.9643 114.837 75.9643C116.321 75.9643 117.359 75.816 118.101 75.5192C118.843 75.2225 119.14 74.7774 119.14 74.1839C119.14 73.5904 118.695 72.997 117.953 72.7002C117.211 72.4035 116.024 72.2551 114.392 72.2551H112.612V69.1394H114.392Z" fill="white"/>
<path d="M141.839 70.9199C141.839 73.5905 141.097 75.6676 139.762 77.1513C138.427 78.6349 136.349 79.3768 133.827 79.3768C132.195 79.3768 130.86 79.0801 129.673 78.3383C128.486 77.5964 127.596 76.7062 126.854 75.3709C126.26 74.0356 125.815 72.5519 125.815 70.9199C125.815 68.2493 126.557 66.1721 127.892 64.6884C129.228 63.2047 131.305 62.4629 133.827 62.4629C135.459 62.4629 136.795 62.7596 137.982 63.5015C139.168 64.2433 140.059 65.1335 140.801 66.4688C141.542 67.8042 141.839 69.2878 141.839 70.9199ZM130.415 70.9199C130.415 72.5519 130.712 73.7389 131.157 74.6291C131.75 75.5193 132.492 75.816 133.827 75.816C135.014 75.816 135.904 75.3709 136.35 74.6291C136.943 73.7389 137.091 72.5519 137.091 70.9199C137.091 69.2878 136.795 68.1009 136.35 67.2107C135.904 66.3205 135.014 66.0237 133.827 66.0237C132.64 66.0237 131.75 66.4688 131.305 67.2107C130.86 67.9525 130.415 69.2878 130.415 70.9199Z" fill="white"/>
<path d="M154.451 79.5248C152.522 79.5248 151.038 78.7829 150 77.4476H149.703C149.852 78.7829 150 79.6732 150 79.8216V86.4981H145.549V62.9076H149.11L149.703 64.9848H149.852C150.89 63.3527 152.374 62.6108 154.451 62.6108C156.38 62.6108 157.863 63.3527 159.05 64.8364C160.089 66.32 160.682 68.3972 160.682 71.0678C160.682 72.8482 160.386 74.3319 159.941 75.6672C159.496 77.0025 158.754 77.8927 157.715 78.6346C156.825 79.0797 155.786 79.5248 154.451 79.5248ZM153.116 66.0233C152.077 66.0233 151.187 66.32 150.742 67.0619C150.297 67.8037 150 68.8423 150 70.4743V70.9195C150 72.6999 150.297 73.8869 150.742 74.6287C151.335 75.3705 152.077 75.8156 153.264 75.8156C155.193 75.8156 156.231 74.1836 156.231 70.9195C156.231 69.2874 155.935 68.1005 155.49 67.3586C155.044 66.6168 154.154 66.0233 153.116 66.0233Z" fill="white"/>
<path d="M21.2157 87.0918C10.6816 86.9434 2.22461 75.074 2.22461 60.534C2.22461 45.9939 10.6816 34.1244 21.2157 33.9761H21.9575V87.2402L21.2157 87.0918Z" fill="#0071A3"/>
<path d="M21.2163 34.7181V86.3501C11.1273 86.2017 2.96708 74.6291 2.96708 60.5341C2.96708 46.4392 11.1273 34.8664 21.2163 34.7181ZM22.7 33.2344H21.2163C15.8751 33.2344 10.8306 36.2017 7.12136 41.5429C3.56053 46.7358 1.4834 53.4124 1.4834 60.5341C1.4834 67.6558 3.41216 74.4807 7.12136 79.5252C10.8306 84.8664 15.8751 87.6854 21.2163 87.8337H22.7V86.3501V34.7181V33.2344Z" fill="#15284E"/>
<path d="M37.5363 98.5161H14.9844V99.9998H37.5363V98.5161Z" fill="#FFC908"/>
<path d="M37.0566 82.6159L21.0898 98.542L22.1376 99.5924L38.1043 83.6663L37.0566 82.6159Z" fill="#FFC908"/>
<path d="M44.9514 82.783L29.0049 98.7295L30.054 99.7786L46.0005 83.8321L44.9514 82.783Z" fill="#FFC908"/>
<path d="M52.5226 90.2077C42.4336 90.2077 33.8282 88.4272 26.7066 85.1631C24.7778 84.2729 22.849 83.086 21.0686 81.899C11.5731 75.3708 6.23184 67.6557 3.56121 56.3797C1.63243 48.813 0.742188 39.9109 0.742188 29.5252C0.742188 22.4035 1.63243 15.727 3.56121 9.4955L4.0063 8.16016L4.89647 9.19875C11.573 17.359 25.3712 21.6617 27.1517 22.1068C28.9321 21.5133 42.582 17.359 49.2585 9.4955L50.1487 8.45691L50.5938 9.79226C52.3742 16.0237 53.2645 22.7002 53.2645 29.5252V90.356L52.5226 90.2077Z" fill="#26A9E0"/>
<path d="M4.30271 9.49557C11.5727 18.3976 27.1513 22.7004 27.1513 22.7004C27.1513 22.7004 42.4332 18.546 49.8516 9.79233C51.632 15.727 52.5223 22.2552 52.5223 29.3769C52.5223 35.3116 52.5223 89.4659 52.5223 89.4659C42.1365 89.4659 33.8279 87.6855 27.003 84.4214C25.0742 83.5312 23.1454 82.4926 21.5133 81.3057C12.3145 75.0742 7.1217 67.6558 4.30271 56.2315C2.37392 48.0712 1.48368 39.0208 1.48368 29.5252C1.48368 22.1068 2.52229 15.5787 4.30271 9.49557ZM3.56087 6.37988L2.81903 9.05049C0.890244 15.4303 0 22.2552 0 29.3769C0 39.911 0.890244 48.8131 2.81903 56.5282C5.63802 68.1009 10.9793 75.816 20.6232 82.4926C22.4036 83.6795 24.3324 84.8665 26.2611 85.7567C33.3828 89.1692 42.1365 90.9496 52.3738 90.9496H53.8575V89.4659V29.3769C53.8575 22.4036 52.9673 15.5787 51.1869 9.34724L50.4451 6.67655L48.6646 8.75373C42.2848 16.1721 29.5252 20.3264 27.1513 21.0682C24.7774 20.3264 11.721 16.1721 5.34121 8.45698L3.56087 6.37988Z" fill="#15284E"/>
<path d="M27.0006 21.9586C25.2202 21.3652 11.2736 17.0625 4.74545 9.0506C3.55851 7.56692 2.66832 6.08324 2.07485 4.59956C1.62974 3.56099 1.33301 2.37402 1.33301 1.33545L27.149 14.3918L52.965 1.33545C52.8167 2.67076 52.3716 4.00609 51.7781 5.3414C51.1846 6.67671 50.2944 8.01204 49.2558 9.34735C42.2825 17.2109 28.7811 21.3652 27.0006 21.9586Z" fill="#0071A3"/>
<path d="M51.7797 2.67069C51.6313 3.41253 51.3345 4.30271 50.8894 5.04455C50.2959 6.37986 49.5541 7.5668 48.5156 8.75374C42.1357 16.1721 29.3761 20.3264 27.0022 21.0683C24.6283 20.3264 11.5719 16.1721 5.19213 8.45699C4.00518 7.12168 3.26333 5.63805 2.66985 4.15437C2.52149 3.5609 2.22477 3.11574 2.22477 2.52227L26.2604 14.6885L27.0022 14.9852L27.7441 14.6885L51.7797 2.67069ZM53.56 0L27.0022 13.5015L0.444336 0C0.444336 1.63205 0.741126 3.26411 1.3346 4.74779C1.92807 6.37984 2.96659 8.01194 4.15353 9.34725C11.4236 18.2493 27.0022 22.5519 27.0022 22.5519C27.0022 22.5519 42.2841 18.3976 49.7025 9.64391C50.7411 8.3086 51.6313 6.97331 52.3731 5.48963C53.1149 4.00595 53.56 2.07715 53.56 0Z" fill="#15284E"/>
<path d="M26.9202 29.3529L21.3623 34.9155L26.9249 40.4734L32.4828 34.9108L26.9202 29.3529Z" fill="#E81C47"/>
<path d="M27.0037 41.5431L20.3271 34.8665L27.0037 28.1899L33.6803 34.8665L27.0037 41.5431ZM22.5527 34.8665L27.0037 39.3175L31.4547 34.8665L27.0037 30.4155L22.5527 34.8665Z" fill="#15284E"/>
<path d="M14.243 40.0597C7.26971 40.0597 1.4834 34.2734 1.4834 27.3001C1.4834 20.3268 7.12134 14.5405 14.243 14.5405C21.2163 14.5405 27.0027 20.3268 27.0027 27.3001C27.0027 34.4218 21.2163 40.0597 14.243 40.0597Z" fill="white"/>
<path d="M14.2436 15.4305C20.9202 15.4305 26.2615 20.7717 26.2615 27.4482C26.2615 34.1248 20.9202 39.4661 14.2436 39.4661C7.56707 39.4661 2.22587 34.1248 2.22587 27.4482C2.22587 20.7717 7.56707 15.4305 14.2436 15.4305ZM14.2436 13.9468C6.82523 13.9468 0.742188 20.0298 0.742188 27.4482C0.742188 34.8666 6.82523 40.9498 14.2436 40.9498C21.662 40.9498 27.7452 34.8666 27.7452 27.4482C27.7452 19.8815 21.662 13.9468 14.2436 13.9468Z" fill="#15284E"/>
<path d="M39.7625 40.0597C32.7892 40.0597 27.0029 34.2734 27.0029 27.3001C27.0029 20.3268 32.6409 14.5405 39.7625 14.5405C46.7358 14.5405 52.5222 20.3268 52.5222 27.3001C52.5222 34.4218 46.7358 40.0597 39.7625 40.0597Z" fill="white"/>
<path d="M39.7632 15.4305C46.4397 15.4305 51.781 20.7717 51.781 27.4482C51.781 34.1248 46.4397 39.4661 39.7632 39.4661C33.0866 39.4661 27.7454 34.1248 27.7454 27.4482C27.7454 20.7717 33.0866 15.4305 39.7632 15.4305ZM39.7632 13.9468C32.3448 13.9468 26.2617 20.0298 26.2617 27.4482C26.2617 34.8666 32.3448 40.9498 39.7632 40.9498C47.1816 40.9498 53.2647 34.8666 53.2647 27.4482C53.2647 19.8815 47.1816 13.9468 39.7632 13.9468Z" fill="#15284E"/>
<path d="M20.623 27.4482C20.623 31.009 17.8039 33.8281 14.2431 33.8281C10.6823 33.8281 7.86328 31.009 7.86328 27.4482C7.86328 23.8873 10.6823 21.0684 14.2431 21.0684C17.8039 21.0684 20.623 23.8873 20.623 27.4482Z" fill="#FFC908"/>
<path d="M14.2427 34.57C10.3852 34.57 7.12109 31.3059 7.12109 27.4483C7.12109 23.5907 10.3852 20.3267 14.2427 20.3267C18.1003 20.3267 21.3645 23.5907 21.3645 27.4483C21.3645 31.3059 18.1003 34.57 14.2427 34.57ZM14.2427 21.8103C11.127 21.8103 8.60477 24.3326 8.60477 27.4483C8.60477 30.564 11.127 33.0864 14.2427 33.0864C17.3585 33.0864 19.8808 30.564 19.8808 27.4483C19.8808 24.3326 17.3585 21.8103 14.2427 21.8103Z" fill="#15284E"/>
<path d="M16.4686 27.4482C16.4686 28.6351 15.43 29.6737 14.2431 29.6737C13.0562 29.6737 12.0176 28.6351 12.0176 27.4482C12.0176 26.2612 13.0562 25.2227 14.2431 25.2227C15.43 25.2227 16.4686 26.1129 16.4686 27.4482Z" fill="#15284E"/>
<path d="M46.1424 27.4482C46.1424 31.009 43.3234 33.8281 39.7626 33.8281C36.2018 33.8281 33.3828 31.009 33.3828 27.4482C33.3828 23.8873 36.2018 21.0684 39.7626 21.0684C43.1751 21.0684 46.1424 23.8873 46.1424 27.4482Z" fill="#FFC908"/>
<path d="M39.7623 34.57C35.9047 34.57 32.6406 31.3059 32.6406 27.4483C32.6406 23.5907 35.9047 20.3267 39.7623 20.3267C43.6198 20.3267 46.8839 23.5907 46.8839 27.4483C46.8839 31.3059 43.6198 34.57 39.7623 34.57ZM39.7623 21.8103C36.6465 21.8103 34.1243 24.3326 34.1243 27.4483C34.1243 30.564 36.6465 33.0864 39.7623 33.0864C42.878 33.0864 45.4002 30.564 45.4002 27.4483C45.4002 24.3326 42.878 21.8103 39.7623 21.8103Z" fill="#15284E"/>
<path d="M41.9881 27.4482C41.9881 28.6351 40.9496 29.6737 39.7626 29.6737C38.5757 29.6737 37.5371 28.6351 37.5371 27.4482C37.5371 26.2612 38.5757 25.2227 39.7626 25.2227C40.9496 25.2227 41.9881 26.1129 41.9881 27.4482Z" fill="#15284E"/>
<path d="M52.5216 82.6411C37.6848 82.4927 25.667 70.6233 25.667 56.0833C25.667 41.5432 37.6848 29.6738 52.5216 29.5254H53.2635V82.7895L52.5216 82.6411Z" fill="#0071A3"/>
<path d="M52.5223 30.2673V81.8993C38.1306 81.7509 26.4095 70.1783 26.4095 56.0833C26.4095 41.84 38.1306 30.4156 52.5223 30.2673ZM54.0059 28.6353H52.5223C37.3887 28.7836 24.9258 41.0981 24.9258 55.9349C24.9258 70.9201 37.2404 83.0863 52.5223 83.2346H54.0059V81.7509V30.2673V28.6353Z" fill="#15284E"/>
</svg>
