<svg width="494" height="88" viewBox="0 0 494 88" fill="none" xmlns="http://www.w3.org/2000/svg">
<path d="M7.41901 83.833L3.47897 78.5081L1.7814 80.1638V83.8314H2.7674e-08V73.0156H1.7814V78.1728L6.72741 73.0156H9.11658L4.75739 77.27L9.68244 83.8314H7.41901V83.833Z" fill="white"/>
<path d="M11.0869 83.8324V73.0166H12.8683V77.3145H18.2754V73.0166H20.0568V83.8324H18.2754V78.8864H12.8683V83.8324H11.0869Z" fill="white"/>
<path d="M22.9482 83.8324V73.0166H24.7296V81.843H24.7716L29.6337 73.0166H31.9181V83.8324H30.1367V75.0092H30.0948L25.2326 83.8324H22.9482Z" fill="white"/>
<path d="M35.6703 83.8324H33.4697L38.2062 77.4596L34.0775 73.0166H36.2781L40.6792 77.9852H40.7211V73.0166H42.5025V77.9852H42.5444L46.9455 73.0166H49.1461L45.0158 77.4596L49.7522 83.8324H47.5517L43.8422 78.593L42.5009 79.9536V83.8324H40.7195V79.9536L39.3782 78.593L35.6703 83.8324Z" fill="white"/>
<path d="M51.3252 83.8324V73.0166H53.1066V77.3145H58.5137V73.0166H60.2951V83.8324H58.5137V78.8864H53.1066V83.8324H51.3252Z" fill="white"/>
<path d="M68.3425 83.8324H63.124V73.0166H64.9054V77.1485H68.2587C70.3754 77.1485 71.7795 78.4043 71.7795 80.4582C71.7795 82.4911 70.4592 83.8324 68.3425 83.8324ZM64.9054 78.6752V82.2622H67.6928C69.1598 82.2622 69.9353 81.6109 69.9353 80.4582C69.9353 79.3055 69.1808 78.6768 67.6928 78.6768H64.9054V78.6752ZM75.2795 73.0166V83.8324H73.4981V73.0166H75.2795Z" fill="white"/>
<path d="M78.1514 83.833V73.0172H79.9328V81.8436H79.9747L84.8369 73.0172H87.1212V83.833H85.3398V75.0098H85.2979L80.4358 83.833H78.1514ZM82.6573 71.8017C80.9178 71.8017 79.6813 70.5861 79.4717 68.9111H80.5405C80.8339 69.9155 81.5675 70.5458 82.6363 70.5458C83.7261 70.5458 84.3967 69.9155 84.7321 68.9111H85.8009C85.5285 70.5861 84.4806 71.8017 82.6573 71.8017Z" fill="white"/>
<path d="M96.0488 83.8324V73.0166H97.8302V81.843H97.8721L102.734 73.0166H105.019V83.8324H103.237V75.0092H103.195L98.3332 83.8324H96.0488Z" fill="white"/>
<path d="M107.911 83.8324V73.0166H109.693V77.3145H115.1V73.0166H116.881V83.8324H115.1V78.8864H109.693V83.8324H107.911Z" fill="white"/>
<path d="M124.174 74.5884V83.8324H122.393V74.5884H118.516V73.0166H128.053V74.5884H124.174Z" fill="white"/>
<path d="M134.213 84.1895C131.027 84.1895 129.12 82.0922 129.12 78.5729C129.12 75.0746 131.153 72.7031 134.15 72.7031C137.713 72.7031 139.054 75.534 139.054 78.6567V78.9082H130.922L130.902 79.034C130.902 81.3393 132.18 82.7209 134.276 82.7209C135.827 82.7209 136.686 82.0502 137.189 80.4155H138.928C138.383 82.9111 136.77 84.1895 134.213 84.1895ZM134.108 74.1702C132.369 74.1702 131.153 75.4292 130.922 77.4605H137.21C137.042 75.4067 135.889 74.1702 134.108 74.1702Z" fill="white"/>
<path d="M142.826 74.5472C143.664 73.2059 144.88 72.6836 146.473 72.6836C149.491 72.6836 151.398 74.8632 151.398 78.3631C151.398 81.8614 149.512 84.1039 146.556 84.1039C144.964 84.1039 143.853 83.5816 142.931 82.3241V88.0004H141.149V73.0157H142.826V74.5472ZM142.868 78.3825C142.868 81.0022 144.167 82.595 146.263 82.595C148.296 82.595 149.555 80.9828 149.555 78.3825C149.555 75.7628 148.298 74.17 146.202 74.17C144.125 74.17 142.868 75.7628 142.868 78.3825Z" fill="white"/>
<path d="M153.787 83.8324V73.0166H155.569V77.3145H160.976V73.0166H162.757V83.8324H160.976V78.8864H155.569V83.8324H153.787Z" fill="white"/>
<path d="M170.177 84.1895C166.991 84.1895 165.084 82.0922 165.084 78.5729C165.084 75.0746 167.117 72.7031 170.114 72.7031C173.677 72.7031 175.018 75.534 175.018 78.6567V78.9082H166.886L166.865 79.034C166.865 81.3393 168.144 82.7209 170.24 82.7209C171.79 82.7209 172.65 82.0502 173.153 80.4155H174.892C174.347 82.9111 172.734 84.1895 170.177 84.1895ZM170.072 74.1702C168.332 74.1702 167.117 75.4292 166.886 77.4605H173.174C173.004 75.4067 171.853 74.1702 170.072 74.1702Z" fill="white"/>
<path d="M181.513 74.5884V83.8324H179.732V74.5884H175.854V73.0166H185.392V74.5884H181.513Z" fill="white"/>
<path d="M192.811 78.8874H186.712V77.127H192.811V78.8874Z" fill="white"/>
<path d="M205.32 83.8324V75.3026H205.257L202.051 83.8324H200.416L197.21 75.3026H197.147V83.8324H195.365V73.0166H197.922L201.212 81.7801H201.254L204.545 73.0166H207.102V83.8324H205.32Z" fill="white"/>
<path d="M219.531 83.7922C219.154 83.9373 218.714 84.0002 218.316 84.0002C217.31 84.0002 216.765 83.4327 216.744 82.4074C215.675 83.6036 214.501 84.1259 212.825 84.1259C210.687 84.1259 209.365 82.9507 209.365 81.0661C209.365 79.1396 210.644 78.0063 213.2 77.6935C215.778 77.3792 216.659 77.442 216.659 75.975C216.659 74.8223 215.799 74.1936 214.206 74.1936C212.551 74.1936 211.692 74.8014 211.524 76.3942H209.784C209.847 74.0888 211.524 72.7266 214.311 72.7266C215.757 72.7266 216.994 73.1038 217.706 73.7744C218.461 74.508 218.44 75.6203 218.44 76.5828C218.44 78.1949 218.356 79.7877 218.356 81.403C218.356 82.1994 218.545 82.4703 219.09 82.4703C219.257 82.4703 219.341 82.4509 219.53 82.4074V83.7922H219.531ZM214.271 78.8639C212.972 79.0332 211.211 79.1783 211.211 80.9194C211.211 82.0285 212.028 82.7201 213.37 82.7201C215.046 82.7201 216.66 81.5675 216.66 80.1859V78.2142C215.989 78.7188 215.066 78.7608 214.271 78.8639Z" fill="white"/>
<path d="M223.239 74.5884V83.8324H221.458V73.0166H228.879V74.5884H223.239Z" fill="white"/>
<path d="M240.007 83.7922C239.63 83.9373 239.19 84.0002 238.792 84.0002C237.786 84.0002 237.241 83.4327 237.22 82.4074C236.151 83.6036 234.977 84.1259 233.301 84.1259C231.163 84.1259 229.843 82.9507 229.843 81.0661C229.843 79.1396 231.121 78.0063 233.678 77.6935C236.256 77.3792 237.136 77.442 237.136 75.975C237.136 74.8223 236.277 74.1936 234.684 74.1936C233.028 74.1936 232.169 74.8014 232.001 76.3942H230.262C230.325 74.0888 232.001 72.7266 234.789 72.7266C236.235 72.7266 237.471 73.1038 238.184 73.7744C238.938 74.508 238.917 75.6203 238.917 76.5828C238.917 78.1949 238.834 79.7877 238.834 81.403C238.834 82.1994 239.022 82.4703 239.567 82.4703C239.735 82.4703 239.819 82.4509 240.007 82.4074V83.7922ZM234.745 78.8639C233.446 79.0332 231.685 79.1783 231.685 80.9194C231.685 82.0285 232.503 82.7201 233.844 82.7201C235.521 82.7201 237.134 81.5675 237.134 80.1859V78.2142C236.464 78.7188 235.542 78.7608 234.745 78.8639Z" fill="white"/>
<path d="M245.853 72.7031C248.074 72.7031 249.917 73.6075 249.917 75.6195C249.917 76.8544 249.059 77.7136 248.179 77.9022V77.9425C249.185 78.1312 250.275 78.9501 250.275 80.6251C250.275 82.974 248.073 84.167 245.788 84.167C242.959 84.167 241.22 82.8063 241.094 80.4575H242.896C243.001 82.0099 244.175 82.7209 245.767 82.7209C247.465 82.7209 248.429 81.7794 248.429 80.6686C248.429 79.5788 247.779 78.9082 246.122 78.9082H244.634V77.4605H245.829C247.086 77.4605 248.113 76.9785 248.113 75.7001C248.113 74.9037 247.294 74.1508 245.829 74.1508C244.55 74.1508 243.23 74.6731 243.083 76.1402H241.284C241.452 73.4802 243.673 72.7031 245.853 72.7031Z" fill="white"/>
<path d="M252.58 83.8324V73.0166H254.36V81.843H254.403L259.266 73.0166H261.552V83.8324H259.77V75.0092H259.727L254.864 83.8324H252.58Z" fill="white"/>
<path d="M264.442 83.8324V73.0166H266.224V77.3145H271.631V73.0166H273.412V83.8324H271.631V78.8864H266.224V83.8324H264.442Z" fill="white"/>
<path d="M209.203 13.213H174.099H163.537L147.45 42.8584H147.273V13.213H137.905V56.0134H148.469L164.552 26.3228H164.735V56.0134H174.1V21.2075H186.938V56.0134H196.362V21.2075H209.206V13.213H209.203ZM68.3832 56.2907H78.422V13.3275H68.3832V56.2907ZM80.8466 13.9788L87.4096 56.4309L92.5055 55.641L85.9442 13.184L80.8466 13.9788ZM124.01 30.7707C122.627 31.0093 118.127 31.7364 115.544 31.7364C110.744 31.7364 108.882 29.8647 108.882 24.6994V13.213H99.5167V24.5769C99.5167 35.5764 105.219 39.5487 114.822 39.5487C117.348 39.5487 121.967 38.7685 124.008 38.3461V56.0134H133.371V13.213H124.008V30.7707H124.01ZM261.176 9.90653C267.244 9.90653 271.51 5.69404 272.001 -4.76608e-08H266.183C265.695 2.15542 264.023 3.95777 261.178 3.95777C258.334 3.95777 256.665 2.15542 256.162 -4.76608e-08H250.352C250.844 5.69404 255.11 9.90653 261.176 9.90653ZM0 56.2907H34.3802L37.7206 13.3275H0V56.2907ZM42.852 13.3275L39.5584 56.2907H50.5451L48.3509 13.3275H42.852ZM60.8804 56.2907H65.8119V13.3275H58.6766L60.8804 56.2907ZM391.92 13.213H373.493V56.0134H382.797V40.6272H392.394C400.98 40.6272 407.58 36.2987 407.58 26.9854C407.581 17.5416 401.164 13.213 391.92 13.213ZM391.144 33.2356H382.797V20.9206H391.197C395.331 20.9206 398.455 22.5359 398.455 27.1031C398.457 31.8524 395.332 33.2356 391.144 33.2356ZM350.804 12.1893C338.02 12.1893 329.619 21.0899 329.619 34.6801C329.619 48.0849 338.083 57.0435 350.741 57.0435C363.291 57.0435 371.749 48.0317 371.749 34.6801C371.749 21.2736 363.291 12.1893 350.804 12.1893ZM350.804 49.2844C343.54 49.2279 339.1 43.6951 339.1 34.4947C339.1 25.599 343.606 19.8872 350.685 19.8872C357.82 19.8872 362.273 25.4732 362.273 34.4947C362.271 43.6419 357.889 49.2844 350.804 49.2844ZM215.753 13.1485L199.485 56.0134H209.09L212.572 46.4631H228.48L231.83 56.0134H241.681L225.414 13.1485H215.753ZM214.853 39.6068L220.55 23.6693L226.188 39.6068H214.853ZM489.11 48.0317V13.213H458.684V19.7018C458.684 32.3361 456.887 41.2898 451.842 48.0317H448.605V67.0307H457.661V56.0134H484.793V67.0307H493.861V48.0317H489.11ZM479.748 48.0317H462.286C466.065 41.1157 467.988 33.2985 467.988 21.5687V20.8513H479.748V48.0317ZM429.821 12.1893C417.033 12.1893 408.633 21.0899 408.633 34.6801C408.633 48.0849 417.099 57.0435 429.763 57.0435C442.303 57.0435 450.767 48.0317 450.767 34.6801C450.769 21.2736 442.305 12.1893 429.821 12.1893ZM429.821 49.2844C422.56 49.2279 418.113 43.6951 418.113 34.4947C418.113 25.599 422.616 19.8872 429.706 19.8872C436.845 19.8872 441.285 25.4732 441.285 34.4947C441.285 43.6419 436.901 49.2844 429.821 49.2844ZM331.779 13.213H307.135V56.2907H316.559V21.2575H331.779V13.213ZM251.966 42.8584H251.787V13.213H242.419V56.0134H252.98L269.067 26.3228H269.237V56.0134H278.608V13.213H268.047L251.966 42.8584ZM283.863 43.4872H301.884V35.8715H283.863V43.4872Z" fill="white"/>
</svg>
