<svg width="108" height="178" viewBox="0 0 108 178" fill="none" xmlns="http://www.w3.org/2000/svg">
<path d="M78.8256 162C63.1056 162 50.3656 154.59 50.3656 145.44C50.3656 145.08 50.2956 138.73 50.3656 138.38C51.3056 129.72 63.7556 128.87 78.8656 128.87C93.9756 128.87 106.596 129.73 107.436 138.44C107.436 138.75 107.336 145.12 107.336 145.44C107.296 154.54 94.5456 162 78.8256 162Z" fill="#DD9900"/>
<path d="M78.8256 160.45C63.1056 160.45 50.3656 153.04 50.3656 143.89C50.3656 143.53 50.2956 137.18 50.3656 136.83C51.3056 128.17 63.7556 127.32 78.8656 127.32C93.9756 127.32 106.596 128.18 107.436 136.89C107.436 137.2 107.336 143.57 107.336 143.89C107.296 153 94.5456 160.45 78.8256 160.45Z" fill="#FFB600"/>
<path d="M78.8257 153.51C94.5437 153.51 107.286 146.091 107.286 136.94C107.286 127.789 94.5437 120.37 78.8257 120.37C63.1077 120.37 50.3657 127.789 50.3657 136.94C50.3657 146.091 63.1077 153.51 78.8257 153.51Z" fill="#FFE524"/>
<path d="M78.8258 150.1C91.6222 150.1 101.996 144.114 101.996 136.73C101.996 129.346 91.6222 123.36 78.8258 123.36C66.0293 123.36 55.6558 129.346 55.6558 136.73C55.6558 144.114 66.0293 150.1 78.8258 150.1Z" fill="#FFB600"/>
<path d="M75.8656 139.12C75.8656 139.12 76.4956 143.35 84.5556 143.35C92.6156 143.35 93.3456 138 93.3456 138V134.4C93.3456 133.76 92.5556 133.24 91.5956 133.24H79.7756V131.8C79.7756 131.16 78.9856 130.64 78.0256 130.64H77.6256C76.6256 130.64 75.8656 131.16 75.8656 131.8V133.24H73.7256V131.8C73.7256 131.16 72.9456 130.64 71.9756 130.64H71.5756C70.5756 130.64 69.8256 131.16 69.8256 131.8V133.24H66.7256C65.7256 133.24 64.9756 133.76 64.9756 134.4V134.66C64.9756 135.3 65.7556 135.81 66.7256 135.81H69.8256V140C69.8256 140.63 70.6056 141.15 71.5756 141.15H71.9856C72.9856 141.15 73.7356 140.63 73.7356 140V135.73H75.8756L75.8656 139.12ZM89.4456 135.77V138C89.4456 138 89.2156 141.07 84.7456 141.07C80.2756 141.07 79.7456 139.16 79.7456 139.16V135.81L89.4456 135.77Z" fill="#DD9900"/>
<path d="M75.8656 138.37C75.8656 138.37 76.4956 142.6 84.5556 142.6C92.6156 142.6 93.3456 137.21 93.3456 137.21V133.61C93.3456 132.97 92.5556 132.45 91.5956 132.45H79.7756V131C79.7756 130.36 78.9856 129.85 78.0256 129.85H77.6256C76.6256 129.85 75.8656 130.36 75.8656 131V132.44H73.7256V131C73.7256 130.36 72.9456 129.85 71.9756 129.85H71.5756C70.5756 129.85 69.8256 130.36 69.8256 131V132.44H66.7256C65.7256 132.44 64.9756 132.96 64.9756 133.6V133.86C64.9756 134.5 65.7556 135.01 66.7256 135.01H69.8256V139.28C69.8256 139.92 70.6056 140.43 71.5756 140.43H71.9856C72.9856 140.43 73.7356 139.92 73.7356 139.28V135H75.8756L75.8656 138.37ZM89.4456 135V137.19C89.4456 137.19 89.2156 140.26 84.7456 140.26C80.2756 140.26 79.7456 138.35 79.7456 138.35V135H89.4456Z" fill="#FFE524"/>
<path d="M78.8256 154C63.1056 154 50.3656 146.58 50.3656 137.43C50.3656 137.08 50.2956 130.72 50.3656 130.37C51.3056 121.72 63.7556 120.87 78.8656 120.87C93.9756 120.87 106.596 121.73 107.436 130.44C107.436 130.75 107.336 137.12 107.336 137.44C107.296 146.53 94.5456 154 78.8256 154Z" fill="#DD9900"/>
<path d="M78.8256 152.45C63.1056 152.45 50.3656 145.03 50.3656 135.88C50.3656 135.53 50.2956 129.17 50.3656 128.82C51.3056 120.16 63.7556 119.31 78.8656 119.31C93.9756 119.31 106.596 120.17 107.436 128.89C107.436 129.2 107.336 135.56 107.336 135.89C107.296 145 94.5456 152.45 78.8256 152.45Z" fill="#FFB600"/>
<path d="M78.8257 145.5C94.5437 145.5 107.286 138.081 107.286 128.93C107.286 119.779 94.5437 112.36 78.8257 112.36C63.1077 112.36 50.3657 119.779 50.3657 128.93C50.3657 138.081 63.1077 145.5 78.8257 145.5Z" fill="#FFE524"/>
<path d="M78.8258 142.09C91.6222 142.09 101.996 136.104 101.996 128.72C101.996 121.336 91.6222 115.35 78.8258 115.35C66.0293 115.35 55.6558 121.336 55.6558 128.72C55.6558 136.104 66.0293 142.09 78.8258 142.09Z" fill="#FFB600"/>
<path d="M75.8656 131.12C75.8656 131.12 76.4956 135.35 84.5556 135.35C92.6156 135.35 93.3456 129.95 93.3456 129.95V126.35C93.3456 125.71 92.5556 125.19 91.5956 125.19H79.7756V123.75C79.7756 123.12 78.9856 122.6 78.0256 122.6H77.6256C76.6256 122.6 75.8656 123.12 75.8656 123.75V125.19H73.7256V123.75C73.7256 123.12 72.9456 122.6 71.9756 122.6H71.5756C70.5756 122.6 69.8256 123.12 69.8256 123.75V125.19H66.7256C65.7256 125.19 64.9756 125.71 64.9756 126.35V126.61C64.9756 127.25 65.7556 127.77 66.7256 127.77H69.8256V132C69.8256 132.64 70.6056 133.16 71.5756 133.16H71.9856C72.9856 133.16 73.7356 132.64 73.7356 132V127.74H75.8756L75.8656 131.12ZM89.4456 127.77V130C89.4456 130 89.2156 133.07 84.7456 133.07C80.2756 133.07 79.7456 131.17 79.7456 131.17V127.82L89.4456 127.77Z" fill="#DD9900"/>
<path d="M75.8656 130.37C75.8656 130.37 76.4956 134.6 84.5556 134.6C92.6156 134.6 93.3456 129.21 93.3456 129.21V125.6C93.3456 124.96 92.5556 124.45 91.5956 124.45H79.7756V123C79.7756 122.36 78.9856 121.84 78.0256 121.84H77.6256C76.6256 121.84 75.8656 122.36 75.8656 123V124.44H73.7256V123C73.7256 122.36 72.9456 121.84 71.9756 121.84H71.5756C70.5756 121.84 69.8256 122.36 69.8256 123V124.44H66.7256C65.7256 124.44 64.9756 124.95 64.9756 125.59V125.85C64.9756 126.49 65.7556 127.01 66.7256 127.01H69.8256V131.27C69.8256 131.91 70.6056 132.43 71.5756 132.43H71.9856C72.9856 132.43 73.7356 131.91 73.7356 131.27V127H75.8756L75.8656 130.37ZM89.4456 127V129.19C89.4456 129.19 89.2156 132.25 84.7456 132.25C80.2756 132.25 79.7456 130.35 79.7456 130.35V127H89.4456Z" fill="#FFE524"/>
<path d="M78.8256 145.94C63.1056 145.94 50.3656 138.53 50.3656 129.38C50.3656 129.02 50.2956 122.67 50.3656 122.32C51.3056 113.66 63.7556 112.81 78.8656 112.81C93.9756 112.81 106.596 113.67 107.436 122.38C107.436 122.69 107.336 129.06 107.336 129.38C107.296 138.53 94.5456 145.94 78.8256 145.94Z" fill="#DD9900"/>
<path d="M78.8256 144.44C63.1056 144.44 50.3656 137.03 50.3656 127.88C50.3656 127.52 50.2956 121.17 50.3656 120.82C51.3056 112.16 63.7556 111.31 78.8656 111.31C93.9756 111.31 106.596 112.17 107.436 120.88C107.436 121.19 107.336 127.56 107.336 127.88C107.296 137 94.5456 144.44 78.8256 144.44Z" fill="#FFB600"/>
<path d="M78.8257 137.5C94.5437 137.5 107.286 130.081 107.286 120.93C107.286 111.779 94.5437 104.36 78.8257 104.36C63.1077 104.36 50.3657 111.779 50.3657 120.93C50.3657 130.081 63.1077 137.5 78.8257 137.5Z" fill="#FFE524"/>
<path d="M78.8258 134.09C91.6222 134.09 101.996 128.104 101.996 120.72C101.996 113.336 91.6222 107.35 78.8258 107.35C66.0293 107.35 55.6558 113.336 55.6558 120.72C55.6558 128.104 66.0293 134.09 78.8258 134.09Z" fill="#FFB600"/>
<path d="M75.8656 123.11C75.8656 123.11 76.4956 127.34 84.5556 127.34C92.6156 127.34 93.3456 122 93.3456 122V118.39C93.3456 117.76 92.5556 117.24 91.5956 117.24H79.7756V115.8C79.7756 115.16 78.9856 114.64 78.0256 114.64H77.6256C76.6256 114.64 75.8656 115.16 75.8656 115.8V117.24H73.7256V115.8C73.7256 115.16 72.9456 114.64 71.9756 114.64H71.5756C70.5756 114.64 69.8256 115.16 69.8256 115.8V117.24H66.7256C65.7256 117.24 64.9756 117.76 64.9756 118.39V118.66C64.9756 119.3 65.7556 119.81 66.7256 119.81H69.8256V124C69.8256 124.63 70.6056 125.15 71.5756 125.15H71.9856C72.9856 125.15 73.7356 124.63 73.7356 124V119.73H75.8756L75.8656 123.11ZM89.4456 119.76V122C89.4456 122 89.2156 125.07 84.7456 125.07C80.2756 125.07 79.7456 123.16 79.7456 123.16V119.81L89.4456 119.76Z" fill="#DD9900"/>
<path d="M75.8656 122.36C75.8656 122.36 76.4956 126.59 84.5556 126.59C92.6156 126.59 93.3456 121.2 93.3456 121.2V117.6C93.3456 116.96 92.5556 116.44 91.5956 116.44H79.7756V115C79.7756 114.36 78.9856 113.85 78.0256 113.85H77.6256C76.6256 113.85 75.8656 114.36 75.8656 115V116.44H73.7256V115C73.7256 114.36 72.9456 113.85 71.9756 113.85H71.5756C70.5756 113.85 69.8256 114.36 69.8256 115V116.44H66.7256C65.7256 116.44 64.9756 116.96 64.9756 117.6V117.86C64.9756 118.5 65.7556 119.01 66.7256 119.01H69.8256V123.28C69.8256 123.92 70.6056 124.43 71.5756 124.43H71.9856C72.9856 124.43 73.7356 123.92 73.7356 123.28V119H75.8756L75.8656 122.36ZM89.4456 119V121.19C89.4456 121.19 89.2156 124.26 84.7456 124.26C80.2756 124.26 79.7456 122.35 79.7456 122.35V119H89.4456Z" fill="#FFE524"/>
<path d="M78.8256 137.94C63.1056 137.94 50.3656 130.52 50.3656 121.37C50.3656 121.02 50.2956 114.66 50.3656 114.31C51.3056 105.66 63.7556 104.81 78.8656 104.81C93.9756 104.81 106.596 105.67 107.436 114.38C107.436 114.69 107.336 121.06 107.336 121.38C107.296 130.52 94.5456 137.94 78.8256 137.94Z" fill="#DD9900"/>
<path d="M78.8256 136.44C63.1056 136.44 50.3656 129.02 50.3656 119.87C50.3656 119.52 50.2956 113.16 50.3656 112.81C51.3056 104.15 63.7556 103.3 78.8656 103.3C93.9756 103.3 106.596 104.16 107.436 112.87C107.436 113.19 107.336 119.55 107.336 119.87C107.296 129 94.5456 136.44 78.8256 136.44Z" fill="#FFB600"/>
<path d="M78.8257 129.49C94.5437 129.49 107.286 122.071 107.286 112.92C107.286 103.769 94.5437 96.3501 78.8257 96.3501C63.1077 96.3501 50.3657 103.769 50.3657 112.92C50.3657 122.071 63.1077 129.49 78.8257 129.49Z" fill="#FFE524"/>
<path d="M78.8258 126.08C91.6222 126.08 101.996 120.094 101.996 112.71C101.996 105.326 91.6222 99.3401 78.8258 99.3401C66.0293 99.3401 55.6558 105.326 55.6558 112.71C55.6558 120.094 66.0293 126.08 78.8258 126.08Z" fill="#FFB600"/>
<path d="M75.8656 115.11C75.8656 115.11 76.4956 119.34 84.5556 119.34C92.6156 119.34 93.3456 113.94 93.3456 113.94V110.34C93.3456 109.7 92.5556 109.18 91.5956 109.18H79.7756V107.74C79.7756 107.11 78.9856 106.59 78.0256 106.59H77.6256C76.6256 106.59 75.8656 107.11 75.8656 107.74V109.18H73.7256V107.74C73.7256 107.11 72.9456 106.59 71.9756 106.59H71.5756C70.5756 106.59 69.8256 107.11 69.8256 107.74V109.18H66.7256C65.7256 109.18 64.9756 109.7 64.9756 110.34V110.6C64.9756 111.24 65.7556 111.76 66.7256 111.76H69.8256V116C69.8256 116.64 70.6056 117.16 71.5756 117.16H71.9856C72.9856 117.16 73.7356 116.64 73.7356 116V111.74H75.8756L75.8656 115.11ZM89.4456 111.76V113.94C89.4456 113.94 89.2156 117.01 84.7456 117.01C80.2756 117.01 79.7456 115.11 79.7456 115.11V111.76H89.4456Z" fill="#DD9900"/>
<path d="M75.8656 114.36C75.8656 114.36 76.4956 118.59 84.5556 118.59C92.6156 118.59 93.3456 113.2 93.3456 113.2V109.59C93.3456 108.95 92.5556 108.44 91.5956 108.44H79.7756V107C79.7756 106.36 78.9856 105.84 78.0256 105.84H77.6256C76.6256 105.84 75.8656 106.36 75.8656 107V108.44H73.7256V107C73.7256 106.36 72.9456 105.84 71.9756 105.84H71.5756C70.5756 105.84 69.8256 106.36 69.8256 107V108.44H66.7256C65.7256 108.44 64.9756 108.95 64.9756 109.59V109.85C64.9756 110.49 65.7556 111.01 66.7256 111.01H69.8256V115.27C69.8256 115.91 70.6056 116.43 71.5756 116.43H71.9856C72.9856 116.43 73.7356 115.91 73.7356 115.27V111H75.8756L75.8656 114.36ZM89.4456 111V113.19C89.4456 113.19 89.2156 116.25 84.7456 116.25C80.2756 116.25 79.7456 114.35 79.7456 114.35V111H89.4456Z" fill="#FFE524"/>
<path d="M78.8256 129.93C63.1056 129.93 50.3656 122.52 50.3656 113.37C50.3656 113.01 50.2956 106.66 50.3656 106.31C51.3056 97.65 63.7556 96.8 78.8656 96.8C93.9756 96.8 106.596 97.66 107.436 106.37C107.436 106.68 107.336 113.05 107.336 113.37C107.296 122.52 94.5456 129.93 78.8256 129.93Z" fill="#DD9900"/>
<path d="M78.8256 128.43C63.1056 128.43 50.3656 121.02 50.3656 111.87C50.3656 111.51 50.2956 105.16 50.3656 104.81C51.3056 96.15 63.7556 95.3 78.8656 95.3C93.9756 95.3 106.596 96.16 107.436 104.87C107.436 105.18 107.336 111.55 107.336 111.87C107.296 121 94.5456 128.43 78.8256 128.43Z" fill="#FFB600"/>
<path d="M78.8257 121.49C94.5437 121.49 107.286 114.071 107.286 104.92C107.286 95.7687 94.5437 88.3501 78.8257 88.3501C63.1077 88.3501 50.3657 95.7687 50.3657 104.92C50.3657 114.071 63.1077 121.49 78.8257 121.49Z" fill="#FFE524"/>
<path d="M78.8258 118.08C91.6222 118.08 101.996 112.094 101.996 104.71C101.996 97.326 91.6222 91.3401 78.8258 91.3401C66.0293 91.3401 55.6558 97.326 55.6558 104.71C55.6558 112.094 66.0293 118.08 78.8258 118.08Z" fill="#FFB600"/>
<path d="M75.8656 107.1C75.8656 107.1 76.4956 111.33 84.5556 111.33C92.6156 111.33 93.3456 105.94 93.3456 105.94V102.33C93.3456 101.7 92.5556 101.18 91.5956 101.18H79.7756V99.7401C79.7756 99.1001 78.9856 98.5801 78.0256 98.5801H77.6256C76.6256 98.5801 75.8656 99.1001 75.8656 99.7401V101.18H73.7256V99.7401C73.7256 99.1001 72.9456 98.5801 71.9756 98.5801H71.5756C70.5756 98.5801 69.8256 99.1001 69.8256 99.7401V101.18H66.7256C65.7256 101.18 64.9756 101.7 64.9756 102.33V102.6C64.9756 103.24 65.7556 103.75 66.7256 103.75H69.8256V108C69.8256 108.63 70.6056 109.15 71.5756 109.15H71.9856C72.9856 109.15 73.7356 108.63 73.7356 108V103.73H75.8756L75.8656 107.1ZM89.4456 103.75V105.94C89.4456 105.94 89.2156 109.01 84.7456 109.01C80.2756 109.01 79.7456 107.1 79.7456 107.1V103.75H89.4456Z" fill="#DD9900"/>
<path d="M75.8656 106.35C75.8656 106.35 76.4956 110.58 84.5556 110.58C92.6156 110.58 93.3456 105.19 93.3456 105.19V101.59C93.3456 100.95 92.5556 100.43 91.5956 100.43H79.7756V99.0001C79.7756 98.3601 78.9856 97.8501 78.0256 97.8501H77.6256C76.6256 97.8501 75.8656 98.3601 75.8656 99.0001V100.44H73.7256V99.0001C73.7256 98.3601 72.9456 97.8501 71.9756 97.8501H71.5756C70.5756 97.8501 69.8256 98.3601 69.8256 99.0001V100.44H66.7256C65.7256 100.44 64.9756 100.96 64.9756 101.6V101.86C64.9756 102.5 65.7556 103.01 66.7256 103.01H69.8256V107.28C69.8256 107.92 70.6056 108.43 71.5756 108.43H71.9856C72.9856 108.43 73.7356 107.92 73.7356 107.28V103H75.8756L75.8656 106.35ZM89.4456 103V105.19C89.4456 105.19 89.2156 108.26 84.7456 108.26C80.2756 108.26 79.7456 106.35 79.7456 106.35V103H89.4456Z" fill="#FFE524"/>
<path d="M78.8256 121.93C63.1056 121.93 50.3656 114.51 50.3656 105.36C50.3656 105.01 50.2956 98.65 50.3656 98.3C51.3056 89.65 63.7556 88.8 78.8656 88.8C93.9756 88.8 106.596 89.66 107.436 98.37C107.436 98.68 107.336 105.05 107.336 105.37C107.296 114.51 94.5456 121.93 78.8256 121.93Z" fill="#DD9900"/>
<path d="M78.8256 120.43C63.1056 120.43 50.3656 113.01 50.3656 103.86C50.3656 103.51 50.2956 97.15 50.3656 96.8C51.3056 88.14 63.7556 87.29 78.8656 87.29C93.9756 87.29 106.596 88.15 107.436 96.86C107.436 97.18 107.336 103.54 107.336 103.86C107.296 113 94.5456 120.43 78.8256 120.43Z" fill="#FFB600"/>
<path d="M78.8257 113.48C94.5437 113.48 107.286 106.061 107.286 96.9101C107.286 87.7587 94.5437 80.3401 78.8257 80.3401C63.1077 80.3401 50.3657 87.7587 50.3657 96.9101C50.3657 106.061 63.1077 113.48 78.8257 113.48Z" fill="#FFE524"/>
<path d="M78.8258 110.07C91.6222 110.07 101.996 104.084 101.996 96.7001C101.996 89.316 91.6222 83.3301 78.8258 83.3301C66.0293 83.3301 55.6558 89.316 55.6558 96.7001C55.6558 104.084 66.0293 110.07 78.8258 110.07Z" fill="#FFB600"/>
<path d="M75.8656 99.1001C75.8656 99.1001 76.4956 103.33 84.5556 103.33C92.6156 103.33 93.3456 97.9301 93.3456 97.9301V94.3301C93.3456 93.6901 92.5556 93.1701 91.5956 93.1701H79.7756V91.7301C79.7756 91.1001 78.9856 90.5801 78.0256 90.5801H77.6256C76.6256 90.5801 75.8656 91.1001 75.8656 91.7301V93.1701H73.7256V91.7301C73.7256 91.1001 72.9456 90.5801 71.9756 90.5801H71.5756C70.5756 90.5801 69.8256 91.1001 69.8256 91.7301V93.1701H66.7256C65.7256 93.1701 64.9756 93.6901 64.9756 94.3301V94.5901C64.9756 95.2301 65.7556 95.7501 66.7256 95.7501H69.8256V100C69.8256 100.64 70.6056 101.16 71.5756 101.16H71.9856C72.9856 101.16 73.7356 100.64 73.7356 100V95.7501H75.8756L75.8656 99.1001ZM89.4456 95.7501V97.9301C89.4456 97.9301 89.2156 101 84.7456 101C80.2756 101 79.7456 99.1001 79.7456 99.1001V95.7501H89.4456Z" fill="#DD9900"/>
<path d="M75.8656 98.3501C75.8656 98.3501 76.4956 102.58 84.5556 102.58C92.6156 102.58 93.3456 97.1901 93.3456 97.1901V93.5801C93.3456 92.9401 92.5556 92.4301 91.5956 92.4301H79.7756V91.0001C79.7756 90.3601 78.9856 89.8401 78.0256 89.8401H77.6256C76.6256 89.8401 75.8656 90.3601 75.8656 91.0001V92.4401H73.7256V91.0001C73.7256 90.3601 72.9456 89.8401 71.9756 89.8401H71.5756C70.5756 89.8401 69.8256 90.3601 69.8256 91.0001V92.4401H66.7256C65.7256 92.4401 64.9756 92.9501 64.9756 93.5901V93.8501C64.9756 94.4901 65.7556 95.0101 66.7256 95.0101H69.8256V99.2701C69.8256 99.9101 70.6056 100.43 71.5756 100.43H71.9856C72.9856 100.43 73.7356 99.9101 73.7356 99.2701V95.0001H75.8756L75.8656 98.3501ZM89.4456 95.0001V97.1901C89.4456 97.1901 89.2156 100.25 84.7456 100.25C80.2756 100.25 79.7456 98.3501 79.7456 98.3501V95.0001H89.4456Z" fill="#FFE524"/>
<path d="M78.8256 113.92C63.1056 113.92 50.3656 106.51 50.3656 97.36C50.3656 97 50.2956 90.65 50.3656 90.3C51.3056 81.64 63.7556 80.79 78.8656 80.79C93.9756 80.79 106.596 81.65 107.436 90.36C107.436 90.67 107.336 97.04 107.336 97.36C107.296 106.51 94.5456 113.92 78.8256 113.92Z" fill="#DD9900"/>
<path d="M78.8256 112.42C63.1056 112.42 50.3656 105.01 50.3656 95.86C50.3656 95.5 50.2956 89.15 50.3656 88.8C51.3056 80.14 63.7556 79.29 78.8656 79.29C93.9756 79.29 106.596 80.15 107.436 88.86C107.436 89.17 107.336 95.54 107.336 95.86C107.296 105 94.5456 112.42 78.8256 112.42Z" fill="#FFB600"/>
<path d="M78.8257 105.48C94.5437 105.48 107.286 98.0615 107.286 88.9101C107.286 79.7587 94.5437 72.3401 78.8257 72.3401C63.1077 72.3401 50.3657 79.7587 50.3657 88.9101C50.3657 98.0615 63.1077 105.48 78.8257 105.48Z" fill="#FFE524"/>
<path d="M78.8258 102.07C91.6222 102.07 101.996 96.0841 101.996 88.7001C101.996 81.316 91.6222 75.3301 78.8258 75.3301C66.0293 75.3301 55.6558 81.316 55.6558 88.7001C55.6558 96.0841 66.0293 102.07 78.8258 102.07Z" fill="#FFB600"/>
<path d="M75.8656 91.0901C75.8656 91.0901 76.4956 95.3201 84.5556 95.3201C92.6156 95.3201 93.3456 89.9301 93.3456 89.9301V86.3201C93.3456 85.6901 92.5556 85.1701 91.5956 85.1701H79.7756V83.7301C79.7756 83.0901 78.9856 82.5701 78.0256 82.5701H77.6256C76.6256 82.5701 75.8656 83.0901 75.8656 83.7301V85.1701H73.7256V83.7301C73.7256 83.0901 72.9456 82.5701 71.9756 82.5701H71.5756C70.5756 82.5701 69.8256 83.0901 69.8256 83.7301V85.1701H66.7256C65.7256 85.1701 64.9756 85.6901 64.9756 86.3201V86.5901C64.9756 87.2301 65.7556 87.7401 66.7256 87.7401H69.8256V92.0001C69.8256 92.6301 70.6056 93.1501 71.5756 93.1501H71.9856C72.9856 93.1501 73.7356 92.6301 73.7356 92.0001V87.7401H75.8756L75.8656 91.0901ZM89.4456 87.7401V89.9301C89.4456 89.9301 89.2156 93.0001 84.7456 93.0001C80.2756 93.0001 79.7456 91.0901 79.7456 91.0901V87.7401H89.4456Z" fill="#DD9900"/>
<path d="M75.8656 90.3401C75.8656 90.3401 76.4956 94.5701 84.5556 94.5701C92.6156 94.5701 93.3456 89.1801 93.3456 89.1801V85.5801C93.3456 84.9401 92.5556 84.4201 91.5956 84.4201H79.7756V83.0001C79.7756 82.3601 78.9856 81.8501 78.0256 81.8501H77.6256C76.6256 81.8501 75.8656 82.3601 75.8656 83.0001V84.4401H73.7256V83.0001C73.7256 82.3601 72.9456 81.8501 71.9756 81.8501H71.5756C70.5756 81.8501 69.8256 82.3601 69.8256 83.0001V84.4401H66.7256C65.7256 84.4401 64.9756 84.9601 64.9756 85.6001V85.8601C64.9756 86.5001 65.7556 87.0101 66.7256 87.0101H69.8256V91.2801C69.8256 91.9201 70.6056 92.4301 71.5756 92.4301H71.9856C72.9856 92.4301 73.7356 91.9201 73.7356 91.2801V87.0001H75.8756L75.8656 90.3401ZM89.4456 87.0001V89.1901C89.4456 89.1901 89.2156 92.2601 84.7456 92.2601C80.2756 92.2601 79.7456 90.3501 79.7456 90.3501V87.0001H89.4456Z" fill="#FFE524"/>
<path d="M78.8256 105.92C63.1056 105.92 50.3656 98.5 50.3656 89.35C50.3656 89 50.2956 82.64 50.3656 82.29C51.3056 73.64 63.7556 72.79 78.8656 72.79C93.9756 72.79 106.596 73.65 107.436 82.36C107.436 82.67 107.336 89.04 107.336 89.36C107.296 98.5 94.5456 105.92 78.8256 105.92Z" fill="#DD9900"/>
<path d="M78.8256 104.42C63.1056 104.42 50.3656 97 50.3656 87.85C50.3656 87.5 50.2956 81.14 50.3656 80.79C51.3056 72.13 63.7556 71.28 78.8656 71.28C93.9756 71.28 106.596 72.14 107.436 80.85C107.436 81.17 107.336 87.53 107.336 87.85C107.296 97 94.5456 104.42 78.8256 104.42Z" fill="#FFB600"/>
<path d="M78.8257 97.4701C94.5437 97.4701 107.286 90.0514 107.286 80.9001C107.286 71.7487 94.5437 64.3301 78.8257 64.3301C63.1077 64.3301 50.3657 71.7487 50.3657 80.9001C50.3657 90.0514 63.1077 97.4701 78.8257 97.4701Z" fill="#FFE524"/>
<path d="M78.8258 94.0601C91.6222 94.0601 101.996 88.0741 101.996 80.6901C101.996 73.306 91.6222 67.3201 78.8258 67.3201C66.0293 67.3201 55.6558 73.306 55.6558 80.6901C55.6558 88.0741 66.0293 94.0601 78.8258 94.0601Z" fill="#FFB600"/>
<path d="M75.8656 83.0901C75.8656 83.0901 76.4956 87.3201 84.5556 87.3201C92.6156 87.3201 93.3456 81.9201 93.3456 81.9201V78.3201C93.3456 77.6801 92.5556 77.1601 91.5956 77.1601H79.7756V75.7201C79.7756 75.0901 78.9856 74.5701 78.0256 74.5701H77.6256C76.6256 74.5701 75.8656 75.0901 75.8656 75.7201V77.1601H73.7256V75.7201C73.7256 75.0901 72.9456 74.5701 71.9756 74.5701H71.5756C70.5756 74.5701 69.8256 75.0901 69.8256 75.7201V77.1601H66.7256C65.7256 77.1601 64.9756 77.6801 64.9756 78.3201V78.5801C64.9756 79.2201 65.7556 79.7401 66.7256 79.7401H69.8256V84.0001C69.8256 84.6401 70.6056 85.1601 71.5756 85.1601H71.9856C72.9856 85.1601 73.7356 84.6401 73.7356 84.0001V79.7401H75.8756L75.8656 83.0901ZM89.4456 79.7401V81.9201C89.4456 81.9201 89.2156 85.0001 84.7456 85.0001C80.2756 85.0001 79.7456 83.1001 79.7456 83.1001V79.7401H89.4456Z" fill="#DD9900"/>
<path d="M75.8656 82.3401C75.8656 82.3401 76.4956 86.5701 84.5556 86.5701C92.6156 86.5701 93.3456 81.1801 93.3456 81.1801V77.5701C93.3456 76.9301 92.5556 76.4201 91.5956 76.4201H79.7756V75.0001C79.7756 74.3601 78.9856 73.8401 78.0256 73.8401H77.6256C76.6256 73.8401 75.8656 74.3601 75.8656 75.0001V76.4401H73.7256V75.0001C73.7256 74.3601 72.9456 73.8401 71.9756 73.8401H71.5756C70.5756 73.8401 69.8256 74.3601 69.8256 75.0001V76.4401H66.7256C65.7256 76.4401 64.9756 76.9501 64.9756 77.5901V77.8501C64.9756 78.4901 65.7556 79.0101 66.7256 79.0101H69.8256V83.2701C69.8256 83.9101 70.6056 84.4301 71.5756 84.4301H71.9856C72.9856 84.4301 73.7356 83.9101 73.7356 83.2701V79.0001H75.8756L75.8656 82.3401ZM89.4456 79.0001V81.1901C89.4456 81.1901 89.2156 84.2501 84.7456 84.2501C80.2756 84.2501 79.7456 82.3501 79.7456 82.3501V79.0001H89.4456Z" fill="#FFE524"/>
<path d="M78.8256 97.62C63.1056 97.62 50.3656 90.2 50.3656 81.05C50.3656 80.7 50.2956 74.34 50.3656 73.99C51.3056 65.34 63.7556 64.49 78.8656 64.49C93.9756 64.49 106.596 65.35 107.436 74.06C107.436 74.37 107.336 80.74 107.336 81.06C107.296 90.2 94.5456 97.62 78.8256 97.62Z" fill="#DD9900"/>
<path d="M78.8256 96.12C63.1056 96.12 50.3656 88.7 50.3656 79.55C50.3656 79.2 50.2956 72.84 50.3656 72.49C51.3056 63.84 63.7556 62.99 78.8656 62.99C93.9756 62.99 106.596 63.85 107.436 72.56C107.436 72.87 107.336 79.24 107.336 79.56C107.296 88.7 94.5456 96.12 78.8256 96.12Z" fill="#FFB600"/>
<path d="M78.8257 89.17C94.5437 89.17 107.286 81.7514 107.286 72.6C107.286 63.4487 94.5437 56.03 78.8257 56.03C63.1077 56.03 50.3657 63.4487 50.3657 72.6C50.3657 81.7514 63.1077 89.17 78.8257 89.17Z" fill="#FFE524"/>
<path d="M78.8258 85.76C91.6222 85.76 101.996 79.7741 101.996 72.39C101.996 65.006 91.6222 59.02 78.8258 59.02C66.0293 59.02 55.6558 65.006 55.6558 72.39C55.6558 79.7741 66.0293 85.76 78.8258 85.76Z" fill="#FFB600"/>
<path d="M75.8656 74.79C75.8656 74.79 76.4956 79 84.5556 79C92.6156 79 93.3456 73.61 93.3456 73.61V70C93.3456 69.36 92.5556 68.85 91.5956 68.85H79.7756V67.43C79.7756 66.79 78.9856 66.27 78.0256 66.27H77.6256C76.6256 66.27 75.8656 66.79 75.8656 67.43V68.87H73.7256V67.43C73.7256 66.79 72.9456 66.27 71.9756 66.27H71.5756C70.5756 66.27 69.8256 66.79 69.8256 67.43V68.87H66.7256C65.7256 68.87 64.9756 69.38 64.9756 70.02V70.28C64.9756 70.92 65.7556 71.44 66.7256 71.44H69.8256V75.7C69.8256 76.34 70.6056 76.86 71.5756 76.86H71.9856C72.9856 76.86 73.7356 76.34 73.7356 75.7V71.44H75.8756L75.8656 74.79ZM89.4456 71.44V73.63C89.4456 73.63 89.2156 76.69 84.7456 76.69C80.2756 76.69 79.7456 74.79 79.7456 74.79V71.44H89.4456Z" fill="#DD9900"/>
<path d="M75.8656 74C75.8656 74 76.4956 78.23 84.5556 78.23C92.6156 78.23 93.3456 72.84 93.3456 72.84V69.27C93.3456 68.63 92.5556 68.12 91.5956 68.12H79.7756V66.68C79.7756 66.04 78.9856 65.52 78.0256 65.52H77.6256C76.6256 65.52 75.8656 66.04 75.8656 66.68V68.12H73.7256V66.68C73.7256 66.04 72.9456 65.52 71.9756 65.52H71.5756C70.5756 65.52 69.8256 66.04 69.8256 66.68V68.12H66.7256C65.7256 68.12 64.9756 68.63 64.9756 69.27V69.53C64.9756 70.17 65.7556 70.69 66.7256 70.69H69.8256V75C69.8256 75.64 70.6056 76.16 71.5756 76.16H71.9856C72.9856 76.16 73.7356 75.64 73.7356 75V70.69H75.8756L75.8656 74ZM89.4456 70.65V72.84C89.4456 72.84 89.2156 75.9 84.7456 75.9C80.2756 75.9 79.7456 74 79.7456 74V70.69L89.4456 70.65Z" fill="#FFE524"/>
<path d="M78.8256 89.62C63.1056 89.62 50.3656 82.2 50.3656 73.05C50.3656 72.69 50.2956 66.34 50.3656 65.99C51.3056 57.33 63.7556 56.48 78.8656 56.48C93.9756 56.48 106.596 57.34 107.436 66.05C107.436 66.36 107.336 72.73 107.336 73.05C107.296 82.2 94.5456 89.62 78.8256 89.62Z" fill="#DD9900"/>
<path d="M78.8256 88.11C63.1056 88.11 50.3656 80.7 50.3656 71.55C50.3656 71.19 50.2956 64.84 50.3656 64.49C51.2656 55.83 63.7156 55 78.8256 55C93.9356 55 106.556 55.86 107.396 64.57C107.396 64.88 107.296 71.25 107.296 71.57C107.296 80.7 94.5456 88.11 78.8256 88.11Z" fill="#FFB600"/>
<path d="M78.8257 81.17C94.5437 81.17 107.286 73.7514 107.286 64.6C107.286 55.4487 94.5437 48.03 78.8257 48.03C63.1077 48.03 50.3657 55.4487 50.3657 64.6C50.3657 73.7514 63.1077 81.17 78.8257 81.17Z" fill="#FFE524"/>
<path d="M78.8258 77.76C91.6222 77.76 101.996 71.7741 101.996 64.39C101.996 57.006 91.6222 51.02 78.8258 51.02C66.0293 51.02 55.6558 57.006 55.6558 64.39C55.6558 71.7741 66.0293 77.76 78.8258 77.76Z" fill="#FFB600"/>
<path d="M75.8656 66.78C75.8656 66.78 76.4956 71 84.5556 71C92.6156 71 93.3456 65.61 93.3456 65.61V62C93.3456 61.36 92.5556 60.84 91.5956 60.84H79.7756V59.42C79.7756 58.78 78.9856 58.27 78.0256 58.27H77.6256C76.6256 58.27 75.8656 58.78 75.8656 59.42V60.86H73.7256V59.42C73.7256 58.78 72.9456 58.27 71.9756 58.27H71.5756C70.5756 58.27 69.8256 58.78 69.8256 59.42V60.86H66.7256C65.7256 60.86 64.9756 61.38 64.9756 62.02V62.28C64.9756 62.92 65.7556 63.43 66.7256 63.43H69.8256V67.7C69.8256 68.34 70.6056 68.85 71.5756 68.85H71.9856C72.9856 68.85 73.7356 68.34 73.7356 67.7V63.43H75.8756L75.8656 66.78ZM89.4456 63.43V65.62C89.4456 65.62 89.2156 68.69 84.7456 68.69C80.2756 68.69 79.7456 66.78 79.7456 66.78V63.43H89.4456Z" fill="#DD9900"/>
<path d="M75.8656 66C75.8656 66 76.4956 70.23 84.5556 70.23C92.6156 70.23 93.3456 64.84 93.3456 64.84V61.24C93.3456 60.6 92.5556 60.08 91.5956 60.08H79.7756V58.67C79.7756 58.03 78.9856 57.52 78.0256 57.52H77.6256C76.6256 57.52 75.8656 58.03 75.8656 58.67V60.11H73.7256V58.67C73.7256 58.03 72.9456 57.52 71.9756 57.52H71.5756C70.5756 57.52 69.8256 58.03 69.8256 58.67V60.11H66.7256C65.7256 60.11 64.9756 60.63 64.9756 61.27V61.53C64.9756 62.17 65.7556 62.69 66.7256 62.69H69.8256V67C69.8256 67.64 70.6056 68.15 71.5756 68.15H71.9856C72.9856 68.15 73.7356 67.64 73.7356 67V62.69H75.8756L75.8656 66ZM89.4456 62.66V64.84C89.4456 64.84 89.2156 67.91 84.7456 67.91C80.2756 67.91 79.7456 66 79.7456 66V62.69L89.4456 62.66Z" fill="#FFE524"/>
<path d="M78.8256 81.61C63.1056 81.61 50.3656 74.19 50.3656 65.04C50.3656 64.69 50.2956 58.33 50.3656 57.98C51.3056 49.33 63.7556 48.48 78.8656 48.48C93.9756 48.48 106.596 49.34 107.436 58.05C107.436 58.36 107.336 64.73 107.336 65.05C107.296 74.19 94.5456 81.61 78.8256 81.61Z" fill="#DD9900"/>
<path d="M78.8256 80.11C63.1056 80.11 50.3656 72.69 50.3656 63.54C50.3656 63.19 50.2956 56.83 50.3656 56.48C51.3056 47.83 63.7556 46.98 78.8656 46.98C93.9756 46.98 106.596 47.84 107.436 56.55C107.436 56.86 107.336 63.23 107.336 63.55C107.296 72.69 94.5456 80.11 78.8256 80.11Z" fill="#FFB600"/>
<path d="M78.8257 73.16C94.5437 73.16 107.286 65.7414 107.286 56.59C107.286 47.4387 94.5437 40.02 78.8257 40.02C63.1077 40.02 50.3657 47.4387 50.3657 56.59C50.3657 65.7414 63.1077 73.16 78.8257 73.16Z" fill="#FFE524"/>
<path d="M78.8258 69.75C91.6222 69.75 101.996 63.7641 101.996 56.38C101.996 48.996 91.6222 43.01 78.8258 43.01C66.0293 43.01 55.6558 48.996 55.6558 56.38C55.6558 63.7641 66.0293 69.75 78.8258 69.75Z" fill="#FFB600"/>
<path d="M75.8656 58.78C75.8656 58.78 76.4956 63 84.5556 63C92.6156 63 93.3456 57.61 93.3456 57.61V54C93.3456 53.36 92.5556 52.85 91.5956 52.85H79.7756V51.42C79.7756 50.78 78.9856 50.26 78.0256 50.26H77.6256C76.6256 50.26 75.8656 50.78 75.8656 51.42V52.86H73.7256V51.42C73.7256 50.78 72.9456 50.26 71.9756 50.26H71.5756C70.5756 50.26 69.8256 50.78 69.8256 51.42V52.86H66.7256C65.7256 52.86 64.9756 53.37 64.9756 54.01V54.27C64.9756 54.91 65.7556 55.43 66.7256 55.43H69.8256V59.69C69.8256 60.33 70.6056 60.85 71.5756 60.85H71.9856C72.9856 60.85 73.7356 60.33 73.7356 59.69V55.43H75.8756L75.8656 58.78ZM89.4456 55.43V57.62C89.4456 57.62 89.2156 60.68 84.7456 60.68C80.2756 60.68 79.7456 58.78 79.7456 58.78V55.43H89.4456Z" fill="#DD9900"/>
<path d="M75.8656 58C75.8656 58 76.4956 62.23 84.5556 62.23C92.6156 62.23 93.3456 56.84 93.3456 56.84V53.26C93.3456 52.62 92.5556 52.11 91.5956 52.11H79.7756V50.67C79.7756 50.03 78.9856 49.51 78.0256 49.51H77.6256C76.6256 49.51 75.8656 50.03 75.8656 50.67V52.11H73.7256V50.67C73.7256 50.03 72.9456 49.51 71.9756 49.51H71.5756C70.5756 49.51 69.8256 50.03 69.8256 50.67V52.11H66.7256C65.7256 52.11 64.9756 52.62 64.9756 53.26V53.52C64.9756 54.16 65.7556 54.68 66.7256 54.68H69.8256V58.94C69.8256 59.58 70.6056 60.1 71.5756 60.1H71.9856C72.9856 60.1 73.7356 59.58 73.7356 58.94V54.68H75.8756L75.8656 58ZM89.4456 54.65V56.84C89.4456 56.84 89.2156 59.9 84.7456 59.9C80.2756 59.9 79.7456 58 79.7456 58V54.68L89.4456 54.65Z" fill="#FFE524"/>
<path d="M78.8256 73.61C63.1056 73.61 50.3656 66.19 50.3656 57.04C50.3656 56.68 50.2956 50.33 50.3656 49.98C51.3056 41.32 63.7556 40.47 78.8656 40.47C93.9756 40.47 106.596 41.33 107.436 50.04C107.436 50.35 107.336 56.72 107.336 57.04C107.296 66.19 94.5456 73.61 78.8256 73.61Z" fill="#DD9900"/>
<path d="M78.8256 72.1C63.1056 72.1 50.3656 64.69 50.3656 55.54C50.3656 55.18 50.2956 48.83 50.3656 48.48C51.2656 39.82 63.7156 39 78.8256 39C93.9356 39 106.556 39.86 107.396 48.57C107.396 48.88 107.296 55.25 107.296 55.57C107.296 64.69 94.5456 72.1 78.8256 72.1Z" fill="#FFB600"/>
<path d="M78.8257 65.16C94.5437 65.16 107.286 57.7414 107.286 48.59C107.286 39.4387 94.5437 32.02 78.8257 32.02C63.1077 32.02 50.3657 39.4387 50.3657 48.59C50.3657 57.7414 63.1077 65.16 78.8257 65.16Z" fill="#FFE524"/>
<path d="M78.8258 61.75C91.6222 61.75 101.996 55.7641 101.996 48.38C101.996 40.996 91.6222 35.01 78.8258 35.01C66.0293 35.01 55.6558 40.996 55.6558 48.38C55.6558 55.7641 66.0293 61.75 78.8258 61.75Z" fill="#FFB600"/>
<path d="M75.8656 50.77C75.8656 50.77 76.4956 55 84.5556 55C92.6156 55 93.3456 49.61 93.3456 49.61V46C93.3456 45.36 92.5556 44.84 91.5956 44.84H79.7756V43.41C79.7756 42.77 78.9856 42.26 78.0256 42.26H77.6256C76.6256 42.26 75.8656 42.77 75.8656 43.41V44.85H73.7256V43.41C73.7256 42.77 72.9456 42.26 71.9756 42.26H71.5756C70.5756 42.26 69.8256 42.77 69.8256 43.41V44.85H66.7256C65.7256 44.85 64.9756 45.37 64.9756 46.01V46.27C64.9756 46.91 65.7556 47.42 66.7256 47.42H69.8256V51.69C69.8256 52.33 70.6056 52.84 71.5756 52.84H71.9856C72.9856 52.84 73.7356 52.33 73.7356 51.69V47.42H75.8756L75.8656 50.77ZM89.4456 47.42V49.61C89.4456 49.61 89.2156 52.68 84.7456 52.68C80.2756 52.68 79.7456 50.77 79.7456 50.77V47.42H89.4456Z" fill="#DD9900"/>
<path d="M75.8656 50C75.8656 50 76.4956 54.23 84.5556 54.23C92.6156 54.23 93.3456 48.84 93.3456 48.84V45.24C93.3456 44.6 92.5556 44.08 91.5956 44.08H79.7756V42.66C79.7756 42.02 78.9856 41.51 78.0256 41.51H77.6256C76.6256 41.51 75.8656 42.02 75.8656 42.66V44.1H73.7256V42.66C73.7256 42.02 72.9456 41.51 71.9756 41.51H71.5756C70.5756 41.51 69.8256 42.02 69.8256 42.66V44.1H66.7256C65.7256 44.1 64.9756 44.62 64.9756 45.26V45.52C64.9756 46.16 65.7556 46.68 66.7256 46.68H69.8256V50.94C69.8256 51.58 70.6056 52.09 71.5756 52.09H71.9856C72.9856 52.09 73.7356 51.58 73.7356 50.94V46.68H75.8756L75.8656 50ZM89.4456 46.66V48.84C89.4456 48.84 89.2156 51.91 84.7456 51.91C80.2756 51.91 79.7456 50 79.7456 50V46.68L89.4456 46.66Z" fill="#FFE524"/>
<path d="M78.8256 65.5999C63.1056 65.5999 50.3656 58.1799 50.3656 48.9999C50.3656 48.6499 50.2956 42.2899 50.3656 41.9399C51.3056 33.2899 63.7556 32.4399 78.8656 32.4399C93.9756 32.4399 106.596 33.2999 107.436 42.0099C107.436 42.3199 107.336 48.6899 107.336 49.0099C107.296 58.1799 94.5456 65.5999 78.8256 65.5999Z" fill="#DD9900"/>
<path d="M78.8256 64.1C63.1056 64.1 50.3656 56.68 50.3656 47.53C50.3656 47.18 50.2956 40.82 50.3656 40.47C51.3056 31.82 63.7556 30.97 78.8656 30.97C93.9756 30.97 106.596 31.83 107.436 40.54C107.436 40.85 107.336 47.22 107.336 47.54C107.296 56.68 94.5456 64.1 78.8256 64.1Z" fill="#FFB600"/>
<path d="M78.8257 57.15C94.5437 57.15 107.286 49.7314 107.286 40.58C107.286 31.4287 94.5437 24.01 78.8257 24.01C63.1077 24.01 50.3657 31.4287 50.3657 40.58C50.3657 49.7314 63.1077 57.15 78.8257 57.15Z" fill="#FFE524"/>
<path d="M78.8258 53.74C91.6222 53.74 101.996 47.754 101.996 40.37C101.996 32.986 91.6222 27 78.8258 27C66.0293 27 55.6558 32.986 55.6558 40.37C55.6558 47.754 66.0293 53.74 78.8258 53.74Z" fill="#FFB600"/>
<path d="M75.8656 42.77C75.8656 42.77 76.4956 47 84.5556 47C92.6156 47 93.3456 41.61 93.3456 41.61V38C93.3456 37.36 92.5556 36.84 91.5956 36.84H79.7756V35.41C79.7756 34.77 78.9856 34.25 78.0256 34.25H77.6256C76.6256 34.25 75.8656 34.77 75.8656 35.41V36.84H73.7256V35.41C73.7256 34.77 72.9456 34.25 71.9756 34.25H71.5756C70.5756 34.25 69.8256 34.77 69.8256 35.41V36.84H66.7256C65.7256 36.84 64.9756 37.36 64.9756 38V38.26C64.9756 38.9 65.7556 39.42 66.7256 39.42H69.8256V43.68C69.8256 44.32 70.6056 44.84 71.5756 44.84H71.9856C72.9856 44.84 73.7356 44.32 73.7356 43.68V39.42H75.8756L75.8656 42.77ZM89.4456 39.42V41.61C89.4456 41.61 89.2156 44.67 84.7456 44.67C80.2756 44.67 79.7456 42.77 79.7456 42.77V39.42H89.4456Z" fill="#DD9900"/>
<path d="M75.8653 42C75.8653 42 76.4954 46.23 84.5554 46.23C92.6154 46.23 93.3454 40.84 93.3454 40.84V37.25C93.3454 36.61 92.5554 36.1 91.5954 36.1H79.7754V34.66C79.7754 34 78.9854 33.5 77.9854 33.5H77.5854C76.5854 33.5 75.8253 34.02 75.8253 34.66V36.1H73.7253V34.66C73.7253 34 72.9854 33.5 71.9854 33.5H71.5854C70.5854 33.5 69.8354 34.02 69.8354 34.66V36.1H66.7354C65.7354 36.1 64.9854 36.61 64.9854 37.25V37.51C64.9854 38.15 65.7654 38.67 66.7354 38.67H69.8354V42.93C69.8354 43.57 70.6153 44.09 71.5854 44.09H71.9854C72.9854 44.09 73.7354 43.57 73.7354 42.93V38.67H75.8754L75.8653 42ZM89.4454 38.65V40.84C89.4454 40.84 89.2154 43.9 84.7454 43.9C80.2754 43.9 79.7454 42 79.7454 42V38.67L89.4454 38.65Z" fill="#FFE524"/>
<path d="M78.8256 57.5999C63.1056 57.5999 50.3656 50.1799 50.3656 40.9999C50.3656 40.6399 50.2956 34.2899 50.3656 33.9399C51.3056 25.2799 63.7556 24.4299 78.8656 24.4299C93.9756 24.4299 106.596 25.2899 107.436 33.9999C107.436 34.3099 107.336 40.6799 107.336 40.9999C107.296 50.1799 94.5456 57.5999 78.8256 57.5999Z" fill="#DD9900"/>
<path d="M78.8256 56.09C63.1056 56.09 50.3656 48.68 50.3656 39.53C50.3656 39.17 50.2956 32.82 50.3656 32.47C51.2656 23.81 63.7156 23 78.8256 23C93.9356 23 106.556 23.86 107.396 32.57C107.396 32.88 107.296 39.25 107.296 39.57C107.296 48.68 94.5456 56.09 78.8256 56.09Z" fill="#FFB600"/>
<path d="M78.8257 49.15C94.5437 49.15 107.286 41.7314 107.286 32.58C107.286 23.4287 94.5437 16.01 78.8257 16.01C63.1077 16.01 50.3657 23.4287 50.3657 32.58C50.3657 41.7314 63.1077 49.15 78.8257 49.15Z" fill="#FFE524"/>
<path d="M78.8258 45.74C91.6222 45.74 101.996 39.754 101.996 32.37C101.996 24.986 91.6222 19 78.8258 19C66.0293 19 55.6558 24.986 55.6558 32.37C55.6558 39.754 66.0293 45.74 78.8258 45.74Z" fill="#FFB600"/>
<path d="M75.8656 34.76C75.8656 34.76 76.4956 39 84.5556 39C92.6156 39 93.3456 33.61 93.3456 33.61V30C93.3456 29.36 92.5556 28.84 91.5956 28.84H79.7756V27.4C79.7756 26.76 78.9856 26.24 78.0256 26.24H77.6256C76.6256 26.24 75.8656 26.76 75.8656 27.4V28.84H73.7256V27.4C73.7256 26.76 72.9456 26.24 71.9756 26.24H71.5756C70.5756 26.24 69.8256 26.76 69.8256 27.4V28.84H66.7256C65.7256 28.84 64.9756 29.36 64.9756 30V30.26C64.9756 30.9 65.7556 31.41 66.7256 31.41H69.8256V35.68C69.8256 36.32 70.6056 36.83 71.5756 36.83H71.9856C72.9856 36.83 73.7356 36.32 73.7356 35.68V31.41H75.8756L75.8656 34.76ZM89.4456 31.41V33.6C89.4456 33.6 89.2156 36.67 84.7456 36.67C80.2756 36.67 79.7456 34.76 79.7456 34.76V31.41H89.4456Z" fill="#DD9900"/>
<path d="M75.8653 34C75.8653 34 76.4954 38.23 84.5554 38.23C92.6154 38.23 93.3454 32.84 93.3454 32.84V29.24C93.3454 28.6 92.5554 28.08 91.5954 28.08H79.7754V26.65C79.7754 26 78.9854 25.5 77.9854 25.5H77.5854C76.5854 25.5 75.8253 26.01 75.8253 26.65V28.09H73.7253V26.65C73.7253 26 72.9854 25.5 71.9854 25.5H71.5854C70.5854 25.5 69.8354 26.01 69.8354 26.65V28.09H66.7354C65.7354 28.09 64.9854 28.61 64.9854 29.25V29.51C64.9854 30.15 65.7654 30.67 66.7354 30.67H69.8354V34.93C69.8354 35.57 70.6153 36.08 71.5854 36.08H71.9854C72.9854 36.08 73.7354 35.57 73.7354 34.93V30.67H75.8754L75.8653 34ZM89.4454 30.66V32.84C89.4454 32.84 89.2154 35.91 84.7454 35.91C80.2754 35.91 79.7454 34 79.7454 34V30.67L89.4454 30.66Z" fill="#FFE524"/>
<path d="M78.8256 49.59C63.1056 49.59 50.3656 42.17 50.3656 33.02C50.3656 32.67 50.2956 26.31 50.3656 25.96C51.3056 17.31 63.7556 16.46 78.8656 16.46C93.9756 16.46 106.596 17.32 107.436 26.03C107.436 26.34 107.336 32.71 107.336 33.03C107.296 42.17 94.5456 49.59 78.8256 49.59Z" fill="#DD9900"/>
<path d="M78.8256 48.09C63.1056 48.09 50.3656 40.67 50.3656 31.52C50.3656 31.17 50.2956 24.81 50.3656 24.46C51.3056 15.81 63.7556 14.96 78.8656 14.96C93.9756 14.96 106.596 15.82 107.436 24.53C107.436 24.84 107.336 31.21 107.336 31.53C107.296 40.67 94.5456 48.09 78.8256 48.09Z" fill="#FFB600"/>
<path d="M78.8257 41.14C94.5437 41.14 107.286 33.7214 107.286 24.57C107.286 15.4186 94.5437 8 78.8257 8C63.1077 8 50.3657 15.4186 50.3657 24.57C50.3657 33.7214 63.1077 41.14 78.8257 41.14Z" fill="#FFE524"/>
<path d="M78.8258 37.73C91.6222 37.73 101.996 31.744 101.996 24.36C101.996 16.9759 91.6222 10.99 78.8258 10.99C66.0293 10.99 55.6558 16.9759 55.6558 24.36C55.6558 31.744 66.0293 37.73 78.8258 37.73Z" fill="#FFB600"/>
<path d="M75.8656 26.76C75.8656 26.76 76.4956 31 84.5556 31C92.6156 31 93.3456 25.61 93.3456 25.61V22C93.3456 21.36 92.5556 20.84 91.5956 20.84H79.7756V19.4C79.7756 18.76 78.9856 18.24 78.0256 18.24H77.6256C76.6256 18.24 75.8656 18.76 75.8656 19.4V20.83H73.7256V19.4C73.7256 18.76 72.9456 18.24 71.9756 18.24H71.5756C70.5756 18.24 69.8256 18.76 69.8256 19.4V20.83H66.7256C65.7256 20.83 64.9756 21.35 64.9756 21.99V22.25C64.9756 22.89 65.7556 23.41 66.7256 23.41H69.8256V27.67C69.8256 28.31 70.6056 28.83 71.5756 28.83H71.9856C72.9856 28.83 73.7356 28.31 73.7356 27.67V23.41H75.8756L75.8656 26.76ZM89.4456 23.41V25.6C89.4456 25.6 89.2156 28.66 84.7456 28.66C80.2756 28.66 79.7456 26.76 79.7456 26.76V23.41H89.4456Z" fill="#DD9900"/>
<path d="M75.8656 26C75.8656 26 76.4956 30.23 84.5556 30.23C92.6156 30.23 93.3456 24.84 93.3456 24.84V21.24C93.3456 20.6 92.5556 20.09 91.5956 20.09H79.7756V18.65C79.7756 18.01 78.9856 17.49 78.0256 17.49H77.6256C76.6256 17.49 75.8656 18.01 75.8656 18.65V20.09H73.7256V18.65C73.7256 18.01 72.9456 17.49 71.9756 17.49H71.5756C70.5756 17.49 69.8256 18.01 69.8256 18.65V20.09H66.7256C65.7256 20.09 64.9756 20.6 64.9756 21.24V21.5C64.9756 22.14 65.7556 22.66 66.7256 22.66H69.8256V26.92C69.8256 27.56 70.6056 28.08 71.5756 28.08H71.9856C72.9856 28.08 73.7356 27.56 73.7356 26.92V22.66H75.8756L75.8656 26ZM89.4456 22.65V24.84C89.4456 24.84 89.2156 27.9 84.7456 27.9C80.2756 27.9 79.7456 26 79.7456 26V22.66L89.4456 22.65Z" fill="#FFE524"/>
<path d="M78.8256 41.59C63.1056 41.59 50.3656 34.17 50.3656 25.02C50.3656 24.66 50.2956 18.31 50.3656 17.96C51.3056 9.29995 63.7556 8.44995 78.8656 8.44995C93.9756 8.44995 106.596 9.30995 107.436 18.02C107.436 18.33 107.336 24.7 107.336 25.02C107.296 34.17 94.5456 41.59 78.8256 41.59Z" fill="#DD9900"/>
<path d="M78.8256 40.08C63.1056 40.08 50.3656 32.67 50.3656 23.52C50.3656 23.16 50.2956 16.81 50.3656 16.46C51.2656 7.8 63.7156 7 78.8256 7C93.9356 7 106.556 7.86 107.396 16.57C107.396 16.88 107.296 23.25 107.296 23.57C107.296 32.67 94.5456 40.08 78.8256 40.08Z" fill="#FFB600"/>
<path d="M78.8257 33.14C94.5437 33.14 107.286 25.7214 107.286 16.57C107.286 7.41864 94.5437 0 78.8257 0C63.1077 0 50.3657 7.41864 50.3657 16.57C50.3657 25.7214 63.1077 33.14 78.8257 33.14Z" fill="#FFE524"/>
<path d="M78.8258 29.73C91.6222 29.73 101.996 23.744 101.996 16.36C101.996 8.97594 91.6222 2.98999 78.8258 2.98999C66.0293 2.98999 55.6558 8.97594 55.6558 16.36C55.6558 23.744 66.0293 29.73 78.8258 29.73Z" fill="#FFB600"/>
<path d="M75.8656 18.75C75.8656 18.75 76.4956 23 84.5556 23C92.6156 23 93.3456 17.61 93.3456 17.61V14C93.3456 13.36 92.5556 12.84 91.5956 12.84H79.7756V11.39C79.7756 10.75 78.9856 10.23 78.0256 10.23H77.6256C76.6256 10.23 75.8656 10.75 75.8656 11.39V12.83H73.7256V11.39C73.7256 10.75 72.9456 10.23 71.9756 10.23H71.5756C70.5756 10.23 69.8256 10.75 69.8256 11.39V12.83H66.7256C65.7256 12.83 64.9756 13.35 64.9756 13.99V14.25C64.9756 14.89 65.7556 15.4 66.7256 15.4H69.8256V19.67C69.8256 20.3 70.6056 20.82 71.5756 20.82H71.9856C72.9856 20.82 73.7356 20.3 73.7356 19.67V15.4H75.8756L75.8656 18.75ZM89.4456 15.4V17.59C89.4456 17.59 89.2156 20.66 84.7456 20.66C80.2756 20.66 79.7456 18.75 79.7456 18.75V15.4H89.4456Z" fill="#DD9900"/>
<path d="M75.8653 18C75.8653 18 76.4954 22.23 84.5554 22.23C92.6154 22.23 93.3454 16.84 93.3454 16.84V13.24C93.3454 12.6 92.5554 12.08 91.5954 12.08H79.7754V10.64C79.7754 9.99999 78.9854 9.48999 77.9854 9.48999H77.5854C76.5854 9.48999 75.8253 9.99999 75.8253 10.64V12.08H73.7253V10.64C73.7253 9.99999 72.9854 9.48999 71.9854 9.48999H71.5854C70.5854 9.48999 69.8354 9.99999 69.8354 10.64V12.08H66.7354C65.7354 12.08 64.9854 12.6 64.9854 13.24V13.5C64.9854 14.14 65.7654 14.66 66.7354 14.66H69.8354V18.92C69.8354 19.56 70.6153 20.07 71.5854 20.07H71.9854C72.9854 20.07 73.7354 19.56 73.7354 18.92V14.66H75.8754L75.8653 18ZM89.4454 14.66V16.84C89.4454 16.84 89.2154 19.91 84.7454 19.91C80.2754 19.91 79.7454 18 79.7454 18V14.66H89.4454Z" fill="#FFE524"/>
<path d="M28.4956 170.29C12.7756 170.29 0.0355556 162.87 0.0355556 153.72C0.0355556 153.37 -0.0444444 147.01 0.0355556 146.66C0.975556 138 13.4256 137.15 28.5356 137.15C43.6456 137.15 56.2556 138.01 57.0956 146.72C57.0956 147.04 56.9956 153.4 56.9956 153.72C56.9856 162.87 44.2156 170.29 28.4956 170.29Z" fill="#DD9900"/>
<path d="M28.4956 168.79C12.7756 168.79 0.0355556 161.37 0.0355556 152.22C0.0355556 151.87 -0.0444444 145.51 0.0355556 145.16C0.975556 136.5 13.4256 135.65 28.5356 135.65C43.6456 135.65 56.2556 136.51 57.0956 145.22C57.0956 145.54 56.9956 151.9 56.9956 152.22C56.9856 161.37 44.2156 168.79 28.4956 168.79Z" fill="#FFB600"/>
<path d="M28.4956 161.84C44.2137 161.84 56.9556 154.421 56.9556 145.27C56.9556 136.119 44.2137 128.7 28.4956 128.7C12.7776 128.7 0.0356445 136.119 0.0356445 145.27C0.0356445 154.421 12.7776 161.84 28.4956 161.84Z" fill="#FFE524"/>
<path d="M28.4957 158.43C41.2921 158.43 51.6657 152.444 51.6657 145.06C51.6657 137.676 41.2921 131.69 28.4957 131.69C15.6992 131.69 5.32568 137.676 5.32568 145.06C5.32568 152.444 15.6992 158.43 28.4957 158.43Z" fill="#FFB600"/>
<path d="M25.5355 147.46C25.5355 147.46 26.1655 151.68 34.2255 151.68C42.2855 151.68 42.9855 146.29 42.9855 146.29V142.69C42.9855 142.05 42.1955 141.53 41.2255 141.53H29.4455V140.09C29.4455 139.45 28.6555 138.94 27.6855 138.94H27.2855C26.2855 138.94 25.5355 139.45 25.5355 140.09V141.53H23.3955V140.09C23.3955 139.45 22.6155 138.94 21.6455 138.94H21.2455C20.2455 138.94 19.4955 139.45 19.4955 140.09V141.53H16.3955C15.3955 141.53 14.6455 142.05 14.6455 142.69V143C14.6455 143.64 15.4255 144.16 16.3955 144.16H19.4955V148.42C19.4955 149.06 20.2755 149.58 21.2455 149.58H21.6455C22.6455 149.58 23.3955 149.06 23.3955 148.42V144.16H25.5355V147.46ZM39.1055 144.11V146.29C39.1055 146.29 38.8855 149.36 34.4155 149.36C29.9455 149.36 29.4155 147.46 29.4155 147.46V144.11H39.1055Z" fill="#DD9900"/>
<path d="M25.5355 146.71C25.5355 146.71 26.1655 150.94 34.2255 150.94C42.2855 150.94 43.0155 145.54 43.0155 145.54V141.94C43.0155 141.3 42.2255 140.78 41.2555 140.78H29.4455V139.34C29.4455 138.71 28.6555 138.19 27.6855 138.19H27.2855C26.2855 138.19 25.5355 138.71 25.5355 139.34V140.78H23.3955V139.34C23.3955 138.71 22.6155 138.19 21.6455 138.19H21.2455C20.2455 138.19 19.4955 138.71 19.4955 139.34V140.78H16.3955C15.3955 140.78 14.6455 141.3 14.6455 141.94V142.2C14.6455 142.84 15.4255 143.36 16.3955 143.36H19.4955V147.62C19.4955 148.26 20.2755 148.78 21.2455 148.78H21.6455C22.6455 148.78 23.3955 148.26 23.3955 147.62V143.36H25.5355V146.71ZM39.1055 143.36V145.54C39.1055 145.54 38.8855 148.61 34.4155 148.61C29.9455 148.61 29.4155 146.71 29.4155 146.71V143.36H39.1055Z" fill="#FFE524"/>
<path d="M28.4956 162.28C12.7756 162.28 0.0355556 154.87 0.0355556 145.72C0.0355556 145.36 -0.0444444 139.01 0.0355556 138.66C0.975556 130 13.4256 129.15 28.5356 129.15C43.6456 129.15 56.2556 130.01 57.0956 138.72C57.0956 139.03 56.9956 145.4 56.9956 145.72C56.9856 154.87 44.2156 162.28 28.4956 162.28Z" fill="#DD9900"/>
<path d="M28.4956 160.78C12.7756 160.78 0.0355556 153.36 0.0355556 144.21C0.0355556 143.86 -0.0444444 137.5 0.0355556 137.16C0.975556 128.5 13.4256 127.65 28.5356 127.65C43.6456 127.65 56.2556 128.51 57.0956 137.22C57.0956 137.53 56.9956 143.9 56.9956 144.22C56.9856 153.36 44.2156 160.78 28.4956 160.78Z" fill="#FFB600"/>
<path d="M28.4956 153.83C44.2137 153.83 56.9556 146.411 56.9556 137.26C56.9556 128.109 44.2137 120.69 28.4956 120.69C12.7776 120.69 0.0356445 128.109 0.0356445 137.26C0.0356445 146.411 12.7776 153.83 28.4956 153.83Z" fill="#FFE524"/>
<path d="M28.4957 150.43C41.2921 150.43 51.6657 144.444 51.6657 137.06C51.6657 129.676 41.2921 123.69 28.4957 123.69C15.6992 123.69 5.32568 129.676 5.32568 137.06C5.32568 144.444 15.6992 150.43 28.4957 150.43Z" fill="#FFB600"/>
<path d="M25.5355 139.45C25.5355 139.45 26.1655 143.68 34.2255 143.68C42.2855 143.68 42.9855 138.29 42.9855 138.29V134.68C42.9855 134.04 42.1955 133.53 41.2255 133.53H29.4455V132.09C29.4455 131.45 28.6555 130.93 27.6855 130.93H27.2855C26.2855 130.93 25.5355 131.45 25.5355 132.09V133.53H23.3955V132.09C23.3955 131.45 22.6155 130.93 21.6455 130.93H21.2455C20.2455 130.93 19.4955 131.45 19.4955 132.09V133.53H16.3955C15.3955 133.53 14.6455 134.04 14.6455 134.68V135C14.6455 135.63 15.4255 136.15 16.3955 136.15H19.4955V140.41C19.4955 141.05 20.2755 141.57 21.2455 141.57H21.6455C22.6455 141.57 23.3955 141.05 23.3955 140.41V136.1H25.5355V139.45ZM39.1055 136.1V138.29C39.1055 138.29 38.8855 141.35 34.4155 141.35C29.9455 141.35 29.4155 139.45 29.4155 139.45V136.1H39.1055Z" fill="#DD9900"/>
<path d="M25.5355 138.7C25.5355 138.7 26.1655 142.93 34.2255 142.93C42.2855 142.93 42.9855 137.54 42.9855 137.54V133.93C42.9855 133.3 42.1955 132.78 41.2255 132.78H29.4455V131.34C29.4455 130.7 28.6555 130.18 27.6855 130.18H27.2855C26.2855 130.18 25.5355 130.7 25.5355 131.34V132.78H23.3955V131.34C23.3955 130.7 22.6155 130.18 21.6455 130.18H21.2455C20.2455 130.18 19.4955 130.7 19.4955 131.34V132.78H16.3955C15.3955 132.78 14.6455 133.3 14.6455 133.93V134.2C14.6455 134.84 15.4255 135.35 16.3955 135.35H19.4955V139.62C19.4955 140.25 20.2755 140.77 21.2455 140.77H21.6455C22.6455 140.77 23.3955 140.25 23.3955 139.62V135.35H25.5355V138.7ZM39.1055 135.35V137.54C39.1055 137.54 38.8855 140.61 34.4155 140.61C29.9455 140.61 29.4155 138.7 29.4155 138.7V135.35H39.1055Z" fill="#FFE524"/>
<path d="M28.4956 154.28C12.7756 154.28 0.0355556 146.86 0.0355556 137.71C0.0355556 137.36 -0.0444444 131 0.0355556 130.65C0.975556 121.99 13.4256 121.14 28.5356 121.14C43.6456 121.14 56.2556 122 57.0956 130.71C57.0956 131.03 56.9956 137.39 56.9956 137.71C56.9856 146.86 44.2156 154.28 28.4956 154.28Z" fill="#DD9900"/>
<path d="M28.4956 152.78C12.7756 152.78 0.0355556 145.36 0.0355556 136.21C0.0355556 135.86 -0.0444444 129.5 0.0355556 129.15C0.975556 120.49 13.4256 119.64 28.5356 119.64C43.6456 119.64 56.2556 120.5 57.0956 129.21C57.0956 129.53 56.9956 135.89 56.9956 136.21C56.9856 145.36 44.2156 152.78 28.4956 152.78Z" fill="#FFB600"/>
<path d="M28.4956 145.83C44.2137 145.83 56.9556 138.411 56.9556 129.26C56.9556 120.109 44.2137 112.69 28.4956 112.69C12.7776 112.69 0.0356445 120.109 0.0356445 129.26C0.0356445 138.411 12.7776 145.83 28.4956 145.83Z" fill="#FFE524"/>
<path d="M28.4957 142.42C41.2921 142.42 51.6657 136.434 51.6657 129.05C51.6657 121.666 41.2921 115.68 28.4957 115.68C15.6992 115.68 5.32568 121.666 5.32568 129.05C5.32568 136.434 15.6992 142.42 28.4957 142.42Z" fill="#FFB600"/>
<path d="M25.5355 131.45C25.5355 131.45 26.1655 135.67 34.2255 135.67C42.2855 135.67 42.9855 130.28 42.9855 130.28V126.68C42.9855 126.04 42.1955 125.52 41.2255 125.52H29.4455V124.08C29.4455 123.44 28.6555 122.93 27.6855 122.93H27.2855C26.2855 122.93 25.5355 123.44 25.5355 124.08V125.52H23.3955V124.08C23.3955 123.44 22.6155 122.93 21.6455 122.93H21.2455C20.2455 122.93 19.4955 123.44 19.4955 124.08V125.52H16.3955C15.3955 125.52 14.6455 126.04 14.6455 126.68V126.94C14.6455 127.58 15.4255 128.1 16.3955 128.1H19.4955V132.36C19.4955 133 20.2755 133.52 21.2455 133.52H21.6455C22.6455 133.52 23.3955 133 23.3955 132.36V128.1H25.5355V131.45ZM39.1055 128.1V130.28C39.1055 130.28 38.8855 133.35 34.4155 133.35C29.9455 133.35 29.4155 131.45 29.4155 131.45V128.1H39.1055Z" fill="#DD9900"/>
<path d="M25.5355 130.7C25.5355 130.7 26.1655 134.93 34.2255 134.93C42.2855 134.93 43.0155 129.53 43.0155 129.53V125.93C43.0155 125.29 42.2255 124.77 41.2555 124.77H29.4455V123.33C29.4455 122.7 28.6555 122.18 27.6855 122.18H27.2855C26.2855 122.18 25.5355 122.7 25.5355 123.33V124.77H23.3955V123.33C23.3955 122.7 22.6155 122.18 21.6455 122.18H21.2455C20.2455 122.18 19.4955 122.7 19.4955 123.33V124.77H16.3955C15.3955 124.77 14.6455 125.29 14.6455 125.93V126.19C14.6455 126.83 15.4255 127.35 16.3955 127.35H19.4955V131.61C19.4955 132.25 20.2755 132.77 21.2455 132.77H21.6455C22.6455 132.77 23.3955 132.25 23.3955 131.61V127.35H25.5355V130.7ZM39.1055 127.35V129.53C39.1055 129.53 38.8855 132.6 34.4155 132.6C29.9455 132.6 29.4155 130.7 29.4155 130.7V127.35H39.1055Z" fill="#FFE524"/>
<path d="M28.4956 146.27C12.7756 146.27 0.0355556 138.86 0.0355556 129.71C0.0355556 129.35 -0.0444444 123 0.0355556 122.65C0.975556 113.99 13.4256 113.14 28.5356 113.14C43.6456 113.14 56.2556 114 57.0956 122.71C57.0956 123.02 56.9956 129.39 56.9956 129.71C56.9856 138.86 44.2156 146.27 28.4956 146.27Z" fill="#DD9900"/>
<path d="M28.4956 144.77C12.7756 144.77 0.0355556 137.35 0.0355556 128.2C0.0355556 127.85 -0.0444444 121.49 0.0355556 121.2C0.975556 112.54 13.4256 111.69 28.5356 111.69C43.6456 111.69 56.2556 112.55 57.0956 121.26C57.0956 121.57 56.9956 127.94 56.9956 128.26C56.9856 137.35 44.2156 144.77 28.4956 144.77Z" fill="#FFB600"/>
<path d="M28.4956 137.82C44.2137 137.82 56.9556 130.401 56.9556 121.25C56.9556 112.099 44.2137 104.68 28.4956 104.68C12.7776 104.68 0.0356445 112.099 0.0356445 121.25C0.0356445 130.401 12.7776 137.82 28.4956 137.82Z" fill="#FFE524"/>
<path d="M28.4957 134.42C41.2921 134.42 51.6657 128.434 51.6657 121.05C51.6657 113.666 41.2921 107.68 28.4957 107.68C15.6992 107.68 5.32568 113.666 5.32568 121.05C5.32568 128.434 15.6992 134.42 28.4957 134.42Z" fill="#FFB600"/>
<path d="M25.5355 123.44C25.5355 123.44 26.1655 127.67 34.2255 127.67C42.2855 127.67 42.9855 122.28 42.9855 122.28V118.67C42.9855 118.03 42.1955 117.52 41.2255 117.52H29.4455V116.08C29.4455 115.44 28.6555 114.92 27.6855 114.92H27.2855C26.2855 114.92 25.5355 115.44 25.5355 116.08V117.52H23.3955V116.08C23.3955 115.44 22.6155 114.92 21.6455 114.92H21.2455C20.2455 114.92 19.4955 115.44 19.4955 116.08V117.52H16.3955C15.3955 117.52 14.6455 118.03 14.6455 118.67V118.94C14.6455 119.57 15.4255 120.09 16.3955 120.09H19.4955V124.35C19.4955 124.99 20.2755 125.51 21.2455 125.51H21.6455C22.6455 125.51 23.3955 124.99 23.3955 124.35V120.09H25.5355V123.44ZM39.1055 120.09V122.28C39.1055 122.28 38.8855 125.34 34.4155 125.34C29.9455 125.34 29.4155 123.44 29.4155 123.44V120.09H39.1055Z" fill="#DD9900"/>
<path d="M25.5355 122.69C25.5355 122.69 26.1655 126.92 34.2255 126.92C42.2855 126.92 42.9855 121.53 42.9855 121.53V117.92C42.9855 117.29 42.1955 116.77 41.2255 116.77H29.4455V115.33C29.4455 114.69 28.6555 114.17 27.6855 114.17H27.2855C26.2855 114.17 25.5355 114.69 25.5355 115.33V116.77H23.3955V115.33C23.3955 114.69 22.6155 114.17 21.6455 114.17H21.2455C20.2455 114.17 19.4955 114.69 19.4955 115.33V116.77H16.3955C15.3955 116.77 14.6455 117.29 14.6455 117.92V118.19C14.6455 118.83 15.4255 119.34 16.3955 119.34H19.4955V123.61C19.4955 124.24 20.2755 124.76 21.2455 124.76H21.6455C22.6455 124.76 23.3955 124.24 23.3955 123.61V119.34H25.5355V122.69ZM39.1055 119.34V121.53C39.1055 121.53 38.8855 124.6 34.4155 124.6C29.9455 124.6 29.4155 122.69 29.4155 122.69V119.34H39.1055Z" fill="#FFE524"/>
<path d="M28.4956 138.27C12.7756 138.27 0.0355556 130.85 0.0355556 121.7C0.0355556 121.35 -0.0444444 114.99 0.0355556 114.64C0.975556 105.98 13.4256 105.13 28.5356 105.13C43.6456 105.13 56.2556 105.99 57.0956 114.7C57.0956 115.02 56.9956 121.38 56.9956 121.7C56.9856 130.85 44.2156 138.27 28.4956 138.27Z" fill="#DD9900"/>
<path d="M28.4956 136.77C12.7756 136.77 0.0355556 129.35 0.0355556 120.2C0.0355556 119.85 -0.0444444 113.49 0.0355556 113.14C0.975556 104.48 13.4256 103.63 28.5356 103.63C43.6456 103.63 56.2556 104.49 57.0956 113.2C57.0956 113.52 56.9956 119.88 56.9956 120.2C56.9856 129.35 44.2156 136.77 28.4956 136.77Z" fill="#FFB600"/>
<path d="M28.4956 129.82C44.2137 129.82 56.9556 122.401 56.9556 113.25C56.9556 104.099 44.2137 96.6799 28.4956 96.6799C12.7776 96.6799 0.0356445 104.099 0.0356445 113.25C0.0356445 122.401 12.7776 129.82 28.4956 129.82Z" fill="#FFE524"/>
<path d="M28.4957 126.41C41.2921 126.41 51.6657 120.424 51.6657 113.04C51.6657 105.656 41.2921 99.6699 28.4957 99.6699C15.6992 99.6699 5.32568 105.656 5.32568 113.04C5.32568 120.424 15.6992 126.41 28.4957 126.41Z" fill="#FFB600"/>
<path d="M25.5355 115.44C25.5355 115.44 26.1655 119.66 34.2255 119.66C42.2855 119.66 42.9855 114.27 42.9855 114.27V110.67C42.9855 110.03 42.1955 109.51 41.2255 109.51H29.4455V108.07C29.4455 107.43 28.6555 106.92 27.6855 106.92H27.2855C26.2855 106.92 25.5355 107.43 25.5355 108.07V109.51H23.3955V108.07C23.3955 107.43 22.6155 106.92 21.6455 106.92H21.2455C20.2455 106.92 19.4955 107.43 19.4955 108.07V109.51H16.3955C15.3955 109.51 14.6455 110.03 14.6455 110.67V110.93C14.6455 111.57 15.4255 112.09 16.3955 112.09H19.4955V116.35C19.4955 116.99 20.2755 117.5 21.2455 117.5H21.6455C22.6455 117.5 23.3955 116.99 23.3955 116.35V112.09H25.5355V115.44ZM39.1055 112.09V114.27C39.1055 114.27 38.8855 117.34 34.4155 117.34C29.9455 117.34 29.4155 115.44 29.4155 115.44V112.09H39.1055Z" fill="#DD9900"/>
<path d="M25.5355 114.69C25.5355 114.69 26.1655 118.92 34.2255 118.92C42.2855 118.92 43.0155 113.52 43.0155 113.52V109.92C43.0155 109.28 42.2255 108.76 41.2555 108.76H29.4455V107.32C29.4455 106.69 28.6555 106.17 27.6855 106.17H27.2855C26.2855 106.17 25.5355 106.69 25.5355 107.32V108.76H23.3955V107.32C23.3955 106.69 22.6155 106.17 21.6455 106.17H21.2455C20.2455 106.17 19.4955 106.69 19.4955 107.32V108.76H16.3955C15.3955 108.76 14.6455 109.28 14.6455 109.92V110.18C14.6455 110.82 15.4255 111.34 16.3955 111.34H19.4955V115.6C19.4955 116.24 20.2755 116.76 21.2455 116.76H21.6455C22.6455 116.76 23.3955 116.24 23.3955 115.6V111.34H25.5355V114.69ZM39.1055 111.34V113.52C39.1055 113.52 38.8855 116.59 34.4155 116.59C29.9455 116.59 29.4155 114.69 29.4155 114.69V111.34H39.1055Z" fill="#FFE524"/>
<path d="M28.4956 130.26C12.7756 130.26 0.0355556 122.85 0.0355556 113.7C0.0355556 113.34 -0.0444444 106.99 0.0355556 106.64C0.985556 97.9999 13.3856 97.1299 28.4956 97.1299C43.6056 97.1299 56.2156 97.9899 57.0556 106.7C57.0556 107.01 56.9556 113.38 56.9556 113.7C56.9856 122.85 44.2156 130.26 28.4956 130.26Z" fill="#DD9900"/>
<path d="M28.4956 128.76C12.7756 128.76 0.0355556 121.34 0.0355556 112.19C0.0355556 111.84 -0.0444444 105.48 0.0355556 105.19C0.975556 96.5299 13.4256 95.6799 28.5356 95.6799C43.6456 95.6799 56.2556 96.5399 57.0956 105.25C57.0956 105.56 56.9956 111.93 56.9956 112.25C56.9856 121.34 44.2156 128.76 28.4956 128.76Z" fill="#FFB600"/>
<path d="M28.4956 121.81C44.2137 121.81 56.9556 114.391 56.9556 105.24C56.9556 96.0886 44.2137 88.6699 28.4956 88.6699C12.7776 88.6699 0.0356445 96.0886 0.0356445 105.24C0.0356445 114.391 12.7776 121.81 28.4956 121.81Z" fill="#FFE524"/>
<path d="M28.4957 118.41C41.2921 118.41 51.6657 112.424 51.6657 105.04C51.6657 97.6559 41.2921 91.6699 28.4957 91.6699C15.6992 91.6699 5.32568 97.6559 5.32568 105.04C5.32568 112.424 15.6992 118.41 28.4957 118.41Z" fill="#FFB600"/>
<path d="M25.5355 107.43C25.5355 107.43 26.1655 111.66 34.2255 111.66C42.2855 111.66 42.9855 106.27 42.9855 106.27V102.66C42.9855 102.02 42.1955 101.51 41.2255 101.51H29.4455V100.07C29.4455 99.4299 28.6555 98.9099 27.6855 98.9099H27.2855C26.2855 98.9099 25.5355 99.4299 25.5355 100.07V101.51H23.3955V100.07C23.3955 99.4299 22.6155 98.9099 21.6455 98.9099H21.2455C20.2455 98.9099 19.4955 99.4299 19.4955 100.07V101.51H16.3955C15.3955 101.51 14.6455 102.02 14.6455 102.66V102.93C14.6455 103.56 15.4255 104.08 16.3955 104.08H19.4955V108.34C19.4955 108.98 20.2755 109.5 21.2455 109.5H21.6455C22.6455 109.5 23.3955 108.98 23.3955 108.34V104.08H25.5355V107.43ZM39.1055 104.08V106.27C39.1055 106.27 38.8855 109.33 34.4155 109.33C29.9455 109.33 29.4155 107.43 29.4155 107.43V104.08H39.1055Z" fill="#DD9900"/>
<path d="M25.5355 106.68C25.5355 106.68 26.1655 110.91 34.2255 110.91C42.2855 110.91 42.9855 105.52 42.9855 105.52V101.91C42.9855 101.28 42.1955 100.76 41.2255 100.76H29.4455V99.3199C29.4455 98.6799 28.6555 98.1599 27.6855 98.1599H27.2855C26.2855 98.1599 25.5355 98.6799 25.5355 99.3199V100.76H23.3955V99.3199C23.3955 98.6799 22.6155 98.1599 21.6455 98.1599H21.2455C20.2455 98.1599 19.4955 98.6799 19.4955 99.3199V100.76H16.3955C15.3955 100.76 14.6455 101.28 14.6455 101.91V102.18C14.6455 102.82 15.4255 103.33 16.3955 103.33H19.4955V107.6C19.4955 108.23 20.2755 108.75 21.2455 108.75H21.6455C22.6455 108.75 23.3955 108.23 23.3955 107.6V103.33H25.5355V106.68ZM39.1055 103.33V105.52C39.1055 105.52 38.8855 108.59 34.4155 108.59C29.9455 108.59 29.4155 106.68 29.4155 106.68V103.33H39.1055Z" fill="#FFE524"/>
<path d="M28.4956 122.26C12.7756 122.26 0.0355556 114.84 0.0355556 105.69C0.0355556 105.34 -0.0444444 98.9801 0.0355556 98.6301C0.985556 90.0001 13.3856 89.1201 28.4956 89.1201C43.6056 89.1201 56.2156 89.9801 57.0556 98.6901C57.0556 99.0101 56.9556 105.37 56.9556 105.69C56.9856 114.84 44.2156 122.26 28.4956 122.26Z" fill="#DD9900"/>
<path d="M28.4956 120.76C12.7756 120.76 0.0355556 113.34 0.0355556 104.19C0.0355556 103.84 -0.0444444 97.4801 0.0355556 97.1301C0.975556 88.4701 13.4256 87.6201 28.5356 87.6201C43.6456 87.6201 56.2556 88.4801 57.0956 97.1901C57.0956 97.5101 56.9956 103.87 56.9956 104.19C56.9856 113.34 44.2156 120.76 28.4956 120.76Z" fill="#FFB600"/>
<path d="M28.4956 113.81C44.2137 113.81 56.9556 106.391 56.9556 97.2399C56.9556 88.0886 44.2137 80.6699 28.4956 80.6699C12.7776 80.6699 0.0356445 88.0886 0.0356445 97.2399C0.0356445 106.391 12.7776 113.81 28.4956 113.81Z" fill="#FFE524"/>
<path d="M28.4957 110.4C41.2921 110.4 51.6657 104.414 51.6657 97.0299C51.6657 89.6459 41.2921 83.6599 28.4957 83.6599C15.6992 83.6599 5.32568 89.6459 5.32568 97.0299C5.32568 104.414 15.6992 110.4 28.4957 110.4Z" fill="#FFB600"/>
<path d="M25.5355 99.4299C25.5355 99.4299 26.1655 103.65 34.2255 103.65C42.2855 103.65 42.9855 98.2599 42.9855 98.2599V94.6599C42.9855 94.0199 42.1955 93.4999 41.2255 93.4999H29.4455V92.0599C29.4455 91.4199 28.6555 90.9099 27.6855 90.9099H27.2855C26.2855 90.9099 25.5355 91.4199 25.5355 92.0599V93.4999H23.3955V92.0599C23.3955 91.4199 22.6155 90.9099 21.6455 90.9099H21.2455C20.2455 90.9099 19.4955 91.4199 19.4955 92.0599V93.4999H16.3955C15.3955 93.4999 14.6455 94.0199 14.6455 94.6599V94.9199C14.6455 95.5599 15.4255 96.0799 16.3955 96.0799H19.4955V100.34C19.4955 100.98 20.2755 101.49 21.2455 101.49H21.6455C22.6455 101.49 23.3955 100.98 23.3955 100.34V96.0799H25.5355V99.4299ZM39.1055 96.0799V98.2599C39.1055 98.2599 38.8855 101.33 34.4155 101.33C29.9455 101.33 29.4155 99.4299 29.4155 99.4299V96.0799H39.1055Z" fill="#DD9900"/>
<path d="M25.5355 98.6799C25.5355 98.6799 26.1655 102.91 34.2255 102.91C42.2855 102.91 42.9855 97.5099 42.9855 97.5099V93.9099C42.9855 93.2699 42.1955 92.7499 41.2255 92.7499H29.4455V91.3099C29.4455 90.6799 28.6555 90.1599 27.6855 90.1599H27.2855C26.2855 90.1599 25.5355 90.6799 25.5355 91.3099V92.7499H23.3955V91.3099C23.3955 90.6799 22.6155 90.1599 21.6455 90.1599H21.2455C20.2455 90.1599 19.4955 90.6799 19.4955 91.3099V92.7499H16.3955C15.3955 92.7499 14.6455 93.2699 14.6455 93.9099V94.1699C14.6455 94.8099 15.4255 95.3299 16.3955 95.3299H19.4955V99.5899C19.4955 100.23 20.2755 100.75 21.2455 100.75H21.6455C22.6455 100.75 23.3955 100.23 23.3955 99.5899V95.3299H25.5355V98.6799ZM39.1055 95.3299V97.5099C39.1055 97.5099 38.8855 100.58 34.4155 100.58C29.9455 100.58 29.4155 98.6799 29.4155 98.6799V95.3299H39.1055Z" fill="#FFE524"/>
<path d="M28.4956 114.25C12.7756 114.25 0.0355556 106.84 0.0355556 97.6901C0.0355556 97.3301 -0.0444444 90.9801 0.0355556 90.6301C0.985556 82.0001 13.3856 81.1201 28.4956 81.1201C43.6056 81.1201 56.2156 81.9801 57.0556 90.6901C57.0556 91.0001 56.9556 97.3701 56.9556 97.6901C56.9856 106.84 44.2156 114.25 28.4956 114.25Z" fill="#DD9900"/>
<path d="M28.4956 112.75C12.7756 112.75 0.0355556 105.33 0.0355556 96.1801C0.0355556 95.8301 -0.0444444 89.4701 0.0355556 89.1301C0.975556 80.4701 13.4256 79.6201 28.5356 79.6201C43.6456 79.6201 56.2556 80.4801 57.0956 89.1901C57.0956 89.5001 56.9956 95.8701 56.9956 96.1901C56.9856 105.33 44.2156 112.75 28.4956 112.75Z" fill="#FFB600"/>
<path d="M28.4956 105.8C44.2137 105.8 56.9556 98.3813 56.9556 89.2299C56.9556 80.0786 44.2137 72.6599 28.4956 72.6599C12.7776 72.6599 0.0356445 80.0786 0.0356445 89.2299C0.0356445 98.3813 12.7776 105.8 28.4956 105.8Z" fill="#FFE524"/>
<path d="M28.4957 102.4C41.2921 102.4 51.6657 96.414 51.6657 89.0299C51.6657 81.6459 41.2921 75.6599 28.4957 75.6599C15.6992 75.6599 5.32568 81.6459 5.32568 89.0299C5.32568 96.414 15.6992 102.4 28.4957 102.4Z" fill="#FFB600"/>
<path d="M25.5355 91.4199C25.5355 91.4199 26.1655 95.6499 34.2255 95.6499C42.2855 95.6499 42.9855 90.2599 42.9855 90.2599V86.6499C42.9855 86.0099 42.1955 85.4999 41.2255 85.4999H29.4455V84.0599C29.4455 83.4199 28.6555 82.8999 27.6855 82.8999H27.2855C26.2855 82.8999 25.5355 83.4199 25.5355 84.0599V85.4999H23.3955V84.0599C23.3955 83.4199 22.6155 82.8999 21.6455 82.8999H21.2455C20.2455 82.8999 19.4955 83.4199 19.4955 84.0599V85.4999H16.3955C15.3955 85.4999 14.6455 86.0099 14.6455 86.6499V86.9199C14.6455 87.5499 15.4255 88.0699 16.3955 88.0699H19.4955V92.3299C19.4955 92.9699 20.2755 93.4899 21.2455 93.4899H21.6455C22.6455 93.4899 23.3955 92.9699 23.3955 92.3299V88.0699H25.5355V91.4199ZM39.1055 88.0699V90.2599C39.1055 90.2599 38.8855 93.3199 34.4155 93.3199C29.9455 93.3199 29.4155 91.4199 29.4155 91.4199V88.0699H39.1055Z" fill="#DD9900"/>
<path d="M25.5355 90.6699C25.5355 90.6699 26.1655 94.8999 34.2255 94.8999C42.2855 94.8999 42.9855 89.5099 42.9855 89.5099V85.8999C42.9855 85.2699 42.1955 84.7499 41.2255 84.7499H29.4455V83.3099C29.4455 82.6699 28.6555 82.1499 27.6855 82.1499H27.2855C26.2855 82.1499 25.5355 82.6699 25.5355 83.3099V84.7499H23.3955V83.3099C23.3955 82.6699 22.6155 82.1499 21.6455 82.1499H21.2455C20.2455 82.1499 19.4955 82.6699 19.4955 83.3099V84.7499H16.3955C15.3955 84.7499 14.6455 85.2699 14.6455 85.8999V86.1699C14.6455 86.8099 15.4255 87.3199 16.3955 87.3199H19.4955V91.5899C19.4955 92.2199 20.2755 92.7399 21.2455 92.7399H21.6455C22.6455 92.7399 23.3955 92.2199 23.3955 91.5899V87.3199H25.5355V90.6699ZM39.1055 87.3199V89.5099C39.1055 89.5099 38.8855 92.5799 34.4155 92.5799C29.9455 92.5799 29.4155 90.6699 29.4155 90.6699V87.3199H39.1055Z" fill="#FFE524"/>
<path d="M47.3256 92.5901C47.3256 92.5901 47.3856 95.9301 45.4956 97.5901C44.3838 98.5977 42.9857 99.2338 41.4956 99.4101C42.9785 99.5261 44.383 100.123 45.4956 101.11C47.1956 102.72 47.0656 106.11 47.0656 106.11C47.0656 106.11 47.3856 102.49 48.7056 101.11C49.7453 100.207 51.0783 99.7126 52.4556 99.7201C51.0619 99.4717 49.8009 98.7385 48.8956 97.6501C47.6056 95.9301 47.3256 92.5901 47.3256 92.5901Z" fill="white"/>
<path d="M69.7656 173.08C85.2627 173.08 97.8256 160.338 97.8256 144.62C97.8256 128.902 85.2627 116.16 69.7656 116.16C54.2685 116.16 41.7056 128.902 41.7056 144.62C41.7056 160.338 54.2685 173.08 69.7656 173.08Z" fill="#DD9900"/>
<path d="M70.7656 174.08C86.2627 174.08 98.8256 161.338 98.8256 145.62C98.8256 129.902 86.2627 117.16 70.7656 117.16C55.2685 117.16 42.7056 129.902 42.7056 145.62C42.7056 161.338 55.2685 174.08 70.7656 174.08Z" fill="#FFB600"/>
<path d="M71.7656 177.09C87.2627 177.09 99.8256 164.348 99.8256 148.63C99.8256 132.912 87.2627 120.17 71.7656 120.17C56.2685 120.17 43.7056 132.912 43.7056 148.63C43.7056 164.348 56.2685 177.09 71.7656 177.09Z" fill="#FFE524"/>
<path d="M71.4156 171.8C83.9249 171.8 94.0656 161.426 94.0656 148.63C94.0656 135.834 83.9249 125.46 71.4156 125.46C58.9064 125.46 48.7656 135.834 48.7656 148.63C48.7656 161.426 58.9064 171.8 71.4156 171.8Z" fill="#FFB600"/>
<path d="M75.4756 151.59C75.4756 151.59 82.6356 150.96 82.6356 142.89C82.6356 134.82 73.5056 134.11 73.5056 134.11H67.3956C67.1492 134.092 66.9016 134.124 66.6673 134.202C66.433 134.281 66.2167 134.405 66.0307 134.568C65.8447 134.731 65.6928 134.929 65.5838 135.15C65.4748 135.372 65.4109 135.613 65.3956 135.86V147.68H62.9856C62.4955 147.655 62.0155 147.826 61.6502 148.153C61.285 148.481 61.0641 148.94 61.0356 149.43V149.83C61.0615 150.322 61.2813 150.783 61.6468 151.113C62.0124 151.443 62.4938 151.615 62.9856 151.59H65.4256V153.73H62.9856C62.7426 153.717 62.4993 153.751 62.2697 153.832C62.0401 153.913 61.8286 154.038 61.6475 154.2C61.4663 154.363 61.319 154.56 61.214 154.779C61.109 154.999 61.0484 155.237 61.0356 155.48V155.88C61.0484 156.123 61.109 156.361 61.214 156.581C61.319 156.8 61.4663 156.997 61.6475 157.16C61.8286 157.322 62.0401 157.447 62.2697 157.528C62.4993 157.609 62.7426 157.643 62.9856 157.63H65.4256V160.73C65.4409 160.977 65.5048 161.218 65.6138 161.44C65.7228 161.661 65.8747 161.859 66.0607 162.022C66.2467 162.185 66.463 162.309 66.6973 162.388C66.9316 162.466 67.1792 162.498 67.4256 162.48H67.8656C68.1124 162.499 68.3605 162.469 68.5954 162.391C68.8302 162.312 69.0471 162.188 69.2334 162.025C69.4197 161.862 69.5715 161.664 69.6801 161.441C69.7887 161.219 69.8517 160.977 69.8656 160.73V157.63H76.9856C77.2324 157.649 77.4805 157.619 77.7154 157.541C77.9502 157.462 78.1671 157.338 78.3534 157.175C78.5397 157.012 78.6915 156.814 78.8001 156.591C78.9087 156.369 78.9717 156.127 78.9856 155.88V155.48C78.9717 155.233 78.9087 154.991 78.8001 154.769C78.6915 154.546 78.5397 154.348 78.3534 154.185C78.1671 154.022 77.9502 153.898 77.7154 153.819C77.4805 153.741 77.2324 153.711 76.9856 153.73H69.7956V151.59H75.4756ZM69.7956 138H73.5056C73.5056 138 78.6956 138.22 78.6956 142.7C78.6956 147.18 75.4756 147.7 75.4756 147.7H69.7956V138Z" fill="#DD9900"/>
<path d="M74.2054 151.59C74.2054 151.59 81.3653 150.96 81.3653 142.89C81.3653 134.82 72.2354 134.11 72.2354 134.11H66.1254C65.8789 134.092 65.6313 134.124 65.397 134.202C65.1628 134.281 64.9464 134.405 64.7604 134.568C64.5744 134.731 64.4225 134.929 64.3135 135.15C64.2045 135.372 64.1406 135.613 64.1254 135.86V147.68H61.7354C61.4886 147.661 61.2405 147.691 61.0056 147.769C60.7708 147.848 60.5539 147.972 60.3676 148.135C60.1813 148.298 60.0295 148.496 59.9209 148.719C59.8123 148.941 59.7493 149.183 59.7354 149.43V149.83C59.748 150.078 59.8101 150.321 59.9181 150.544C60.0261 150.768 60.1778 150.968 60.3642 151.132C60.5506 151.296 60.7679 151.421 61.0034 151.5C61.2389 151.578 61.4878 151.609 61.7354 151.59H64.1654V153.73H61.7354C61.4886 153.711 61.2405 153.741 61.0056 153.819C60.7708 153.898 60.5539 154.022 60.3676 154.185C60.1813 154.348 60.0295 154.546 59.9209 154.769C59.8123 154.991 59.7493 155.233 59.7354 155.48V155.88C59.7493 156.127 59.8123 156.369 59.9209 156.591C60.0295 156.814 60.1813 157.012 60.3676 157.175C60.5539 157.338 60.7708 157.462 61.0056 157.541C61.2405 157.619 61.4886 157.649 61.7354 157.63H64.1654V160.73C64.1806 160.977 64.2445 161.218 64.3535 161.44C64.4625 161.661 64.6144 161.859 64.8004 162.022C64.9864 162.185 65.2028 162.309 65.437 162.388C65.6713 162.466 65.9189 162.498 66.1654 162.48H66.6153C66.8621 162.499 67.1102 162.469 67.3451 162.391C67.5799 162.312 67.7968 162.188 67.9831 162.025C68.1694 161.862 68.3212 161.664 68.4298 161.441C68.5384 161.219 68.6014 160.977 68.6153 160.73V157.63H75.8354C76.0821 157.649 76.3302 157.619 76.5651 157.541C76.7999 157.462 77.0168 157.338 77.2031 157.175C77.3894 157.012 77.5412 156.814 77.6498 156.591C77.7584 156.369 77.8214 156.127 77.8354 155.88V155.48C77.8214 155.233 77.7584 154.991 77.6498 154.769C77.5412 154.546 77.3894 154.348 77.2031 154.185C77.0168 154.022 76.7999 153.898 76.5651 153.819C76.3302 153.741 76.0821 153.711 75.8354 153.73H68.5254V151.59H74.2054ZM68.5254 138H72.2354C72.2354 138 77.4254 138.22 77.4254 142.7C77.4254 147.18 74.2054 147.7 74.2054 147.7H68.5254V138Z" fill="#FFE524"/>
<path d="M87.7654 160.19C87.7824 161.129 87.4511 162.041 86.8354 162.75C86.279 163.255 85.5807 163.576 84.8354 163.67C85.579 163.735 86.2812 164.04 86.8354 164.54C87.3928 165.258 87.6764 166.152 87.6355 167.06C87.6967 166.154 87.9819 165.278 88.4655 164.51C88.9922 164.051 89.6671 163.799 90.3654 163.8C89.6578 163.673 89.0172 163.301 88.5555 162.75C88.1128 161.963 87.8434 161.09 87.7654 160.19Z" fill="white"/>
</svg>
