<svg width="982" height="1080" viewBox="0 0 982 1080" fill="none" xmlns="http://www.w3.org/2000/svg">
<mask id="mask0" mask-type="alpha" maskUnits="userSpaceOnUse" x="0" y="0" width="982" height="1080">
<rect width="982" height="1080" fill="#C4C4C4"/>
</mask>
<g mask="url(#mask0)">
<path d="M399.737 -253.214C235.326 -251.04 101.503 -64.6544 101.503 162.486C101.503 389.355 235.326 576.013 399.737 578.186L411.754 578.458L411.754 -253.214L399.737 -253.214Z" fill="#0071A3"/>
<path d="M399.739 566.231L399.739 -241.531C241.337 -239.357 113.249 -59.2206 113.249 162.486C113.249 383.921 241.337 564.33 399.739 566.231ZM423.226 590.141L399.466 589.869C315.076 588.782 236.421 542.865 177.976 460.269C121.169 380.117 89.7617 274.426 89.7617 162.486C89.7617 50.546 121.169 -55.145 177.975 -135.296C236.421 -217.621 315.076 -263.81 399.466 -264.897L423.226 -265.169L423.226 -241.531L423.226 566.231L423.226 590.141Z" fill="#15284E"/>
<path d="M890.239 -300.218C731.837 -299.675 595.556 -273.048 484.947 -220.61C454.359 -206.21 424.59 -189.093 397.006 -170.074C247.343 -67.3717 164.865 51.9044 121.167 229.052C91.9448 347.785 77.7431 485.265 77.7431 649.915C77.7431 760.497 92.491 866.188 121.44 963.999L127.722 985.192L141.924 968.075C245.705 841.463 463.918 774.353 492.594 766.202C520.997 774.625 734.022 839.833 839.441 963.456L853.643 980.03L859.651 959.109C887.782 862.384 901.983 758.595 901.983 649.915L901.983 -299.946L890.239 -300.218Z" fill="#26A9E0"/>
<path d="M132.911 960.739C247.344 821.085 492.595 753.976 492.595 753.976C492.595 753.976 732.11 819.727 848.181 955.848C875.219 862.927 889.967 760.768 889.967 649.915C889.967 557.537 889.967 -288.263 889.967 -288.263C726.921 -287.72 595.556 -260.007 489.59 -209.742C458.729 -195.07 430.053 -178.497 403.288 -160.293C259.907 -61.9376 176.609 52.1761 132.365 232.041C101.231 358.653 89.2141 500.48 89.2141 649.915C89.4873 762.398 104.781 866.459 132.911 960.739ZM122.806 1009.92L110.244 967.26C81.021 868.089 66 761.312 66 649.643C66 484.178 80.2017 345.612 109.97 226.064C154.487 45.9271 238.331 -75.5226 390.452 -179.855C418.582 -199.146 448.624 -216.535 480.032 -231.206C592.279 -284.188 730.198 -311.358 890.513 -311.901L914 -311.901L914 -288.535L914 649.643C914 759.138 899.525 864.286 871.122 962.097L858.832 1003.94L830.429 970.52C730.745 853.418 530.557 789.297 492.595 777.885C454.086 789.297 249.529 855.048 150.937 975.139L122.806 1009.92Z" fill="#15284E"/>
<path d="M489.862 765.93C461.186 774.353 242.973 841.463 139.192 967.803C120.893 990.082 106.965 1013.45 97.6793 1037.36C91.1247 1054.2 87.028 1071.32 85.1162 1088.17L489.862 884.119L894.608 1088.44C892.423 1066.97 886.415 1045.78 876.856 1024.86C867.297 1003.94 853.642 983.29 836.709 963.184C731.29 839.833 518.265 774.353 489.862 765.93Z" fill="#0071A3"/>
<path d="M879.044 1067.52C876.04 1054.75 871.671 1042.25 865.935 1029.75C856.65 1009.92 843.813 990.082 827.427 970.792C727.743 853.689 527.555 789.568 489.593 778.157C451.357 789.568 246.526 855.32 147.934 975.411C130.455 996.875 117.073 1019.15 108.334 1041.71C105.056 1050.4 102.325 1058.82 100.414 1067.52L478.941 876.512L489.593 871.078L500.244 876.512L879.044 1067.52ZM907.174 1108L489.866 897.161L72.5566 1108C72.5566 1081.65 77.7457 1056.65 87.0313 1033.28C97.1363 1007.2 111.884 983.018 130.182 960.739C244.615 821.085 489.866 753.976 489.866 753.976C489.866 753.976 729.381 819.727 845.452 955.848C862.385 975.682 876.86 997.147 887.238 1020.24C899.801 1047.14 907.174 1076.48 907.174 1108Z" fill="#15284E"/>
<path d="M489.765 649.643L402.465 562.817L489.74 475.967L577.04 562.793L489.765 649.643Z" fill="#EC1847"/>
<path d="M489.863 459.453L385.809 562.971L489.863 666.488L593.917 562.971L489.863 459.453ZM419.128 562.971L489.863 492.601L560.598 562.971L489.863 633.341L419.128 562.971Z" fill="#15284E"/>
<path d="M289.675 481.732C179.34 481.732 89.4873 571.121 89.4873 680.616C89.4873 790.383 179.34 879.772 289.675 879.772C400.011 879.772 489.864 790.383 489.864 680.616C489.863 570.85 400.011 481.732 289.675 481.732Z" fill="white"/>
<path d="M289.675 868.089C393.456 868.089 477.846 784.134 477.846 680.616C477.846 577.371 393.456 493.415 289.675 493.415C185.894 493.415 101.504 577.371 101.504 680.616C101.504 783.862 185.894 868.089 289.675 868.089ZM289.675 891.455C172.785 891.455 77.7432 796.904 77.7431 680.616C77.7431 564.329 172.785 469.778 289.675 469.778C406.565 469.778 501.607 564.329 501.607 680.616C501.607 796.904 406.838 891.455 289.675 891.455Z" fill="#15284E"/>
<path d="M690.049 481.733C579.714 481.733 489.861 571.122 489.861 680.617C489.861 790.383 579.714 879.772 690.049 879.772C800.385 879.772 890.238 790.383 890.238 680.617C889.964 570.85 800.112 481.733 690.049 481.733Z" fill="white"/>
<path d="M690.05 868.089C793.831 868.089 878.221 784.134 878.221 680.617C878.221 577.371 793.831 493.416 690.05 493.416C586.269 493.416 501.879 577.371 501.879 680.617C501.605 783.863 585.996 868.089 690.05 868.089ZM690.05 891.456C573.16 891.456 478.118 796.904 478.118 680.617C478.118 564.33 572.887 469.778 690.05 469.778C806.94 469.778 901.982 564.33 901.982 680.617C901.709 796.904 806.94 891.456 690.05 891.456Z" fill="#15284E"/>
<path d="M389.907 680.616C389.907 625.733 345.117 581.174 289.95 581.174C234.782 581.174 189.992 625.733 189.992 680.616C189.992 735.5 234.782 780.058 289.95 780.058C345.117 780.33 389.907 735.5 389.907 680.616Z" fill="#FFCA05"/>
<path d="M289.675 569.492C227.952 569.492 177.974 619.484 177.974 680.617C177.974 742.021 228.226 791.742 289.675 791.742C351.397 791.742 401.376 741.749 401.376 680.617C401.649 619.213 351.397 569.492 289.675 569.492ZM289.675 768.376C241.062 768.376 201.461 728.979 201.461 680.617C201.461 632.254 241.062 592.858 289.675 592.858C338.288 592.858 377.889 632.254 377.889 680.617C378.162 728.979 338.561 768.376 289.675 768.376Z" fill="#15284E"/>
<path d="M325.181 680.617C325.181 661.326 309.34 645.568 289.95 645.568C270.559 645.568 254.719 661.326 254.719 680.617C254.719 699.908 270.559 715.666 289.95 715.666C309.34 715.666 325.181 700.179 325.181 680.617Z" fill="#15284E"/>
<path d="M790.005 680.616C790.005 625.733 745.215 581.174 690.047 581.174C634.879 581.174 590.09 625.733 590.09 680.616C590.09 735.5 634.879 780.058 690.047 780.058C745.215 780.33 790.005 735.5 790.005 680.616Z" fill="#FFCA05"/>
<path d="M690.051 569.492C628.328 569.492 578.35 619.484 578.35 680.617C578.35 742.021 628.601 791.742 690.051 791.742C751.773 791.742 801.752 741.749 801.752 680.617C801.752 619.213 751.5 569.492 690.051 569.492ZM690.051 768.376C641.437 768.376 601.837 728.979 601.837 680.617C601.837 632.254 641.437 592.858 690.051 592.858C738.664 592.858 778.264 632.254 778.264 680.617C778.264 728.979 738.664 768.376 690.051 768.376Z" fill="#15284E"/>
<path d="M725.283 680.617C725.283 661.326 709.443 645.568 690.052 645.568C670.661 645.568 654.821 661.326 654.821 680.617C654.821 699.908 670.661 715.666 690.052 715.666C709.443 715.666 725.283 700.179 725.283 680.617Z" fill="#15284E"/>
<path d="M889.967 -182.844C657.826 -180.67 468.835 5.71539 468.835 232.856C468.835 459.725 657.826 646.383 889.967 648.556L901.711 648.556L901.711 -182.844L889.967 -182.844Z" fill="#0071A3"/>
<path d="M890.238 636.601L890.238 -171.161C663.831 -168.987 480.849 11.1494 480.849 232.856C480.576 454.291 663.831 634.428 890.238 636.601ZM913.725 660.239L889.965 659.967C651.269 657.794 457.089 465.974 457.089 232.584C457.089 -0.805481 651.269 -192.625 889.965 -194.799L913.725 -195.07L913.725 -171.433L913.725 636.601L913.725 660.239Z" fill="#15284E"/>
</g>
</svg>
