<svg width="690" height="106" viewBox="0 0 102 106" fill="none" xmlns="http://www.w3.org/2000/svg">

<defs>
  <symbol id="owl">
    <path d="M50.9243 104.726C23.759 104.726 1.54578 82.5073 1.4043 55.3351V54.4859C1.54578 41.4659 3.24363 29.0119 6.63928 17.5486L7.34671 15.0012L9.04455 17.1241C10.7424 19.1054 12.7231 21.2282 14.9869 23.2095C28.428 34.6728 48.236 40.7582 51.2072 41.6074C54.1784 40.7582 73.562 34.6728 87.0031 23.4926C89.2669 21.6528 91.2477 19.6714 92.9455 17.6901L94.6433 15.7088L95.3508 18.2562C98.6049 29.578 100.303 41.7489 100.444 54.4859V55.4766C100.444 82.5073 78.231 104.726 50.9243 104.726Z" fill="#27AAE1"/>

    <path d="M8.05215 17.8316C9.89146 20.096 12.0137 22.0773 14.2775 24.0586C29.1335 36.6541 51.3467 42.8811 51.3467 42.8811C51.3467 42.8811 73.1355 36.7956 87.9915 24.4832C90.2553 22.6434 92.2361 20.6621 94.0754 18.5393C97.1881 29.4365 99.0274 41.4658 99.0274 54.4859C99.0274 54.7689 99.0274 55.052 99.0274 55.4766C98.8859 81.9412 77.3801 103.453 50.9223 103.453C24.4645 103.453 2.95865 81.9412 2.81717 55.4766C2.81717 55.1935 2.81717 54.9105 2.81717 54.769C2.95865 41.1828 4.79798 29.0119 8.05215 17.8316ZM6.92028 11.8877L5.36389 16.9825C1.96824 28.5873 0.128906 41.1828 0.128906 54.3444V54.6274C0.128906 54.7689 0.128906 54.9105 0.128906 55.1935C0.270392 83.2149 23.0496 106 51.0637 106C79.0779 106 101.857 83.2149 101.999 55.1935C101.999 55.052 101.999 54.7689 101.999 54.6274V54.2028C101.857 41.3243 100.159 29.0119 96.9051 17.5486L95.4902 12.4538L92.0945 16.4164C90.5382 18.2562 88.5574 20.2375 86.4351 22.0773C73.7014 32.6915 55.4498 38.6354 51.4882 39.7676C47.5266 38.6354 28.992 32.5499 16.2583 21.7943C13.9945 19.8129 12.0138 17.9731 10.4574 15.9918L6.92028 11.8877Z" fill="#15284E"/>

    <path d="M50.9211 41.466C47.5254 40.4753 21.2091 32.4086 8.75839 16.9826C6.49462 14.2937 4.93828 11.4633 3.80639 8.63284C2.95748 6.65153 2.53297 4.52867 2.25 2.54736L50.9211 27.1723L99.5922 2.54736C99.3092 5.09476 98.6018 7.78372 97.4699 10.1896C96.338 12.737 94.6401 15.2844 92.6593 17.6903C79.9256 32.5501 54.3167 40.3338 50.9211 41.466Z" fill="#0171A3"/>

    <path d="M97.7544 4.95328C97.3299 6.51002 96.9055 8.06678 96.1981 9.48201C95.0662 11.8879 93.5099 14.2938 91.5291 16.5581C79.5028 30.7103 55.4502 38.4941 50.9227 39.7677C46.2537 38.3525 21.6352 30.4273 9.89188 15.992C7.76959 13.4446 6.21322 10.7557 5.08133 7.92525C4.65687 6.9346 4.37397 5.8024 4.091 4.81175L49.6493 27.8799L50.9227 28.5875L52.1961 27.8799L97.7544 4.95328ZM101.15 0L50.9227 25.474L0.695312 0C0.695312 3.25501 1.40276 6.22697 2.39316 9.05741C3.66653 12.1709 5.36437 15.1429 7.62814 17.8318C21.3522 34.673 50.9227 42.8812 50.9227 42.8812C50.9227 42.8812 79.7858 34.956 93.6514 18.5394C95.6322 16.1335 97.4714 13.5861 98.7448 10.7557C100.16 7.35916 101.15 3.8211 101.15 0Z" fill="#15284E"/>

    <path d="M51.0359 55.5363L40.5312 66.0437L51.0359 76.5511L61.5406 66.0437L51.0359 55.5363Z" fill="#E91E48" stroke="#15284E" stroke-width="2" stroke-miterlimit="10"/>

    <path d="M26.869 75.7145C40.1528 75.7145 50.9215 64.943 50.9215 51.6557C50.9215 38.3684 40.1528 27.5969 26.869 27.5969C13.5851 27.5969 2.81641 38.3684 2.81641 51.6557C2.81641 64.943 13.5851 75.7145 26.869 75.7145Z" fill="white"/>

    <path d="M26.8698 29.0121C39.3205 29.0121 49.5074 39.2017 49.5074 51.6556C49.5074 64.1096 39.3205 74.2992 26.8698 74.2992C14.419 74.2992 4.23206 64.1096 4.23206 51.6556C4.23206 39.2017 14.419 29.0121 26.8698 29.0121ZM26.8698 26.1816C12.8627 26.1816 1.40234 37.6449 1.40234 51.6556C1.40234 65.6663 12.8627 77.1296 26.8698 77.1296C40.8768 77.1296 52.3372 65.6663 52.3372 51.6556C52.3372 37.6449 40.8768 26.1816 26.8698 26.1816Z" fill="#15284E"/>

    <path d="M74.9764 75.7145C88.2602 75.7145 99.0289 64.943 99.0289 51.6557C99.0289 38.3684 88.2602 27.5969 74.9764 27.5969C61.6925 27.5969 50.9238 38.3684 50.9238 51.6557C50.9238 64.943 61.6925 75.7145 74.9764 75.7145Z" fill="#F1F2F2"/>

    <path d="M74.9752 29.0121C87.426 29.0121 97.6129 39.2017 97.6129 51.6556C97.6129 64.1096 87.426 74.2992 74.9752 74.2992C62.5245 74.2992 52.3375 64.1096 52.3375 51.6556C52.3375 39.2017 62.5245 29.0121 74.9752 29.0121ZM74.9752 26.1816C60.9681 26.1816 49.5078 37.6449 49.5078 51.6556C49.5078 65.6663 60.9681 77.1296 74.9752 77.1296C88.9823 77.1296 100.443 65.6663 100.443 51.6556C100.443 37.6449 88.9823 26.1816 74.9752 26.1816Z" fill="#15284E"/>

  </symbol>

  <symbol id="eyelids">
    <!--веки-->
    <path d="M51.3483 55.9014C51.0653 54.4862 50.9238 53.071 50.9238 51.7973C50.9238 38.4942 61.6767 27.7385 74.9764 27.7385C81.0603 27.7385 87.0026 30.1444 91.3887 34.2486L51.3483 55.9014Z" fill="#0171A3"/>

    <path d="M74.9752 29.0121C80.0687 29.0121 85.0207 30.7103 88.9823 33.8238L52.479 53.4954C52.479 52.7878 52.3375 52.2217 52.3375 51.5141C52.3375 39.2017 62.5245 29.0121 74.9752 29.0121ZM74.9752 26.1816C60.9681 26.1816 49.5078 37.6449 49.5078 51.6556C49.5078 53.7785 49.7907 55.9013 50.3567 58.0241L93.7928 34.5314C89.1238 29.4366 82.474 26.1816 74.9752 26.1816Z" fill="#15284E"/>

    <path d="M10.4551 34.2486C14.8411 30.0029 20.7835 27.7385 26.8674 27.7385C40.167 27.7385 50.9199 38.4942 50.9199 51.7973C50.9199 53.2125 50.7785 54.6277 50.4955 55.9014L10.4551 34.2486Z" fill="#0171A3"/>

    <path d="M26.8683 29.0121C39.3191 29.0121 49.506 39.2017 49.506 51.6556C49.506 52.3633 49.5061 52.9293 49.3646 53.6369L12.8612 33.9654C16.8228 30.8519 21.7749 29.0121 26.8683 29.0121ZM26.8683 26.1816C19.3696 26.1816 12.7198 29.4366 8.05078 34.5314L51.4869 58.0241C52.0528 56.0428 52.3358 53.92 52.3358 51.6556C52.3358 37.6449 40.8754 26.1816 26.8683 26.1816Z" fill="#15284E"/>
    <!--веки-->
  </symbol>

  <symbol id="eyes">
    <path d="M27.3075 63.685C33.9495 63.685 39.3338 58.2993 39.3338 51.6556C39.3338 45.012 33.9495 39.6262 27.3075 39.6262C20.6656 39.6262 15.2812 45.012 15.2812 51.6556C15.2812 58.2993 20.6656 63.685 27.3075 63.685Z" fill="#FFCA0B" stroke="#15284E" stroke-width="2" stroke-miterlimit="10"/>
    <path d="M27.3071 55.9012C29.6513 55.9012 31.5516 54.0004 31.5516 51.6556C31.5516 49.3108 29.6513 47.4099 27.3071 47.4099C24.9629 47.4099 23.0625 49.3108 23.0625 51.6556C23.0625 54.0004 24.9629 55.9012 27.3071 55.9012Z" fill="#15284E"/>
    <path d="M75.413 63.685C82.0549 63.685 87.4393 58.2993 87.4393 51.6556C87.4393 45.012 82.0549 39.6262 75.413 39.6262C68.7711 39.6262 63.3867 45.012 63.3867 51.6556C63.3867 58.2993 68.7711 63.685 75.413 63.685Z" fill="#FFCA0B" stroke="#15284E" stroke-width="2" stroke-miterlimit="10"/>
    <path d="M75.4106 55.9012C77.7548 55.9012 79.6552 54.0004 79.6552 51.6556C79.6552 49.3108 77.7548 47.4099 75.4106 47.4099C73.0664 47.4099 71.166 49.3108 71.166 51.6556C71.166 54.0004 73.0664 55.9012 75.4106 55.9012Z" fill="#15284E"/>
  </symbol>
</defs>

<g id="state-1" transform="translate(244)">
  <use href="#owl" />
  
  <!-- красные глаза -->
  <path d="M31.1142 63.685C37.7561 63.685 43.1404 58.2993 43.1404 51.6556C43.1404 45.012 37.7561 39.6262 31.1142 39.6262C24.4722 39.6262 19.0879 45.012 19.0879 51.6556C19.0879 58.2993 24.4722 63.685 31.1142 63.685Z" fill="#E91E48" stroke="#15284E" stroke-width="2" stroke-miterlimit="10"/>

  <path d="M70.7314 63.685C77.3733 63.685 82.7576 58.2993 82.7576 51.6556C82.7576 45.012 77.3733 39.6262 70.7314 39.6262C64.0894 39.6262 58.7051 45.012 58.7051 51.6556C58.7051 58.2993 64.0894 63.685 70.7314 63.685Z" fill="#E91E48" stroke="#15284E" stroke-width="2" stroke-miterlimit="10"/>
  <!-- красные глаза -->

  <use href="#eyelids" />

  <!--огонь в глазах-->
  <path d="M27.2937 42.7397C26.8692 43.5889 26.8692 45.1456 27.5767 45.8532C28.9915 40.6169 32.3872 39.6262 32.3872 39.6262C31.9628 42.3151 33.8021 45.2871 35.6414 47.4099C35.6414 46.2778 35.7829 45.5702 36.3488 44.5795C36.4903 46.5608 37.9051 48.1175 38.3295 50.0989C38.8955 52.7878 37.9051 54.6276 34.2265 56.6089C35.3584 54.203 34.7924 52.9293 33.9435 51.6556C32.9531 50.2404 32.6701 48.8252 32.6701 48.8252C32.6701 48.8252 31.9627 49.8158 32.2457 51.3725C30.9723 49.9573 30.6893 47.5515 30.8308 46.7023C27.8596 48.8252 26.5863 53.3539 28.2841 56.6089C19.229 51.3726 26.1618 43.5889 27.2937 42.7397Z" fill="#15284E"/>

  <path d="M74.5492 42.7397C74.9737 43.5889 74.9737 45.1456 74.2663 45.8532C72.8514 40.6169 69.4557 39.6262 69.4557 39.6262C69.8802 42.3151 68.0409 45.2871 66.2016 47.4099C66.2016 46.2778 66.0601 45.5702 65.4941 44.5795C65.3526 46.5608 63.9378 48.1175 63.5134 50.0989C62.9474 52.6463 63.9378 54.6276 67.6164 56.6089C66.4845 54.203 67.0505 52.9293 67.8994 51.6556C68.8898 50.2404 69.1728 48.8252 69.1728 48.8252C69.1728 48.8252 69.8802 49.8158 69.5972 51.3725C70.8706 49.9573 71.1536 47.5515 71.0121 46.7023C73.9833 48.8252 75.2566 53.3539 73.5588 56.6089C82.7554 51.3726 75.8226 43.5889 74.5492 42.7397Z" fill="#15284E"/>
  <!--огонь в глазах-->
</g>

<g id="state-2" transform="translate(122)">
  <use href="#owl" />
  <use href="#eyes" />
  <use href="#eyelids" />
</g>

<g id="state-3">
  <use href="#owl" />
  <use href="#eyes" />
</g>

<g id="state-4" transform="translate(-122)" >
  <use href="#owl" />
  <path d="M35.938 55.9012C35.938 51.231 31.835 47.4099 26.7415 47.4099C21.648 47.4099 17.5449 51.231 17.5449 55.9012" stroke="#15284E" stroke-width="2" stroke-miterlimit="10"/>
  <path d="M84.0416 55.9012C84.0416 51.231 79.9385 47.4099 74.845 47.4099C69.7515 47.4099 65.6484 51.231 65.6484 55.9012" stroke="#15284E" stroke-width="2" stroke-miterlimit="10"/>
</g>

<g id="state-5" transform="translate(-244)">
  <use href="#owl" />
  <path d="M32.5412 43.3059C32.2583 43.3059 31.8338 43.3059 31.5508 43.3059C29.1456 43.3059 28.0137 44.2965 26.7403 45.8533C25.467 44.2965 24.3351 43.3059 21.9298 43.3059C21.6469 43.3059 21.3639 43.3059 20.9394 43.3059C18.8171 43.4474 16.4119 45.4287 16.1289 48.9668V50.099C16.4119 53.4955 19.1001 57.7412 26.7403 62.9775C34.3805 57.7412 37.0688 53.4955 37.3517 50.099V48.9668C37.0688 45.2872 34.6635 43.4474 32.5412 43.3059Z" fill="#E91E48" stroke="#15284E" stroke-width="2" stroke-miterlimit="10"/>
  <path d="M80.6487 43.3059C80.3657 43.3059 79.9412 43.3059 79.6582 43.3059C77.253 43.3059 76.1211 44.2965 74.8477 45.8533C73.5744 44.2965 72.4425 43.3059 70.0372 43.3059C69.7543 43.3059 69.4713 43.3059 69.0468 43.3059C66.9245 43.4474 64.5193 45.4287 64.2363 48.9668V50.099C64.5193 53.4955 67.2075 57.7412 74.8477 62.9775C82.488 57.7412 85.1762 53.4955 85.4592 50.099V48.9668C85.1762 45.2872 82.771 43.4474 80.6487 43.3059Z" fill="#E91E48" stroke="#15284E" stroke-width="2" stroke-miterlimit="10"/>
</g>
</svg>
