<svg width="438" height="513" viewBox="0 0 438 513" fill="none" xmlns="http://www.w3.org/2000/svg">
<mask id="mask0" mask-type="alpha" maskUnits="userSpaceOnUse" x="0" y="0" width="438" height="513">
<rect width="438" height="512.041" transform="matrix(1 -8.74228e-08 -8.74228e-08 -1 0 512.97)" fill="#C4C4C4"/>
</mask>
<g mask="url(#mask0)">
<path d="M178.295 625.91C104.963 624.941 45.2744 541.807 45.2744 440.496C45.2744 339.306 104.963 256.052 178.295 255.082L183.655 254.961L183.655 625.91L178.295 625.91Z" fill="#0071A3"/>
<path d="M178.296 260.414L178.296 620.699C107.644 619.73 50.5131 539.384 50.5131 440.496C50.5131 341.73 107.644 261.263 178.296 260.414ZM188.772 249.75L178.174 249.871C140.534 250.356 105.451 270.836 79.383 307.677C54.0457 343.427 40.0371 390.568 40.0371 440.496C40.0371 490.425 54.0457 537.566 79.383 573.316C105.451 610.035 140.534 630.637 178.174 631.121L188.772 631.243L188.772 620.699L188.772 260.414L188.772 249.75Z" fill="#15284E"/>
<path d="M397.072 646.875C326.42 646.633 265.635 634.757 216.3 611.368C202.657 604.945 189.38 597.31 177.076 588.827C110.322 543.019 73.5345 489.819 54.0442 410.806C41.0101 357.847 34.6758 296.527 34.6758 223.089C34.6758 173.766 41.2537 126.625 54.166 82.9984L56.9678 73.5459L63.3021 81.1806C109.591 137.653 206.921 167.586 219.711 171.222C232.38 167.465 327.395 138.38 374.415 83.2408L380.749 75.8484L383.429 85.1797C395.976 128.322 402.31 174.615 402.31 223.089L402.31 646.754L397.072 646.875Z" fill="#26A9E0"/>
<path d="M59.2829 84.4532C110.323 146.743 219.712 176.675 219.712 176.675C219.712 176.675 326.543 147.349 378.314 86.6345C390.373 128.08 396.951 173.646 396.951 223.09C396.951 264.293 396.951 641.544 396.951 641.544C324.228 641.301 265.636 628.94 218.372 606.521C204.607 599.977 191.816 592.585 179.879 584.465C115.926 540.596 78.7731 489.698 59.0392 409.473C45.1525 353.001 39.7927 289.742 39.7927 223.09C39.9145 172.919 46.7361 126.505 59.2829 84.4532ZM54.7758 62.5186L49.1723 81.5447C36.1383 125.777 29.4385 173.403 29.4385 223.211C29.4385 297.013 35.7728 358.817 49.0506 412.139C68.9062 492.485 106.303 546.655 174.153 593.191C186.7 601.795 200.1 609.551 214.108 616.095C264.174 639.726 325.69 651.844 397.195 652.087L407.671 652.087L407.671 641.665L407.671 223.211C407.671 174.373 401.215 127.474 388.546 83.8472L383.064 65.1846L370.396 80.0905C325.934 132.321 236.644 160.921 219.712 166.011C202.536 160.921 111.297 131.594 67.3226 78.0303L54.7758 62.5186Z" fill="#15284E"/>
<path d="M218.496 171.342C205.706 167.585 108.376 137.652 62.0869 81.3006C53.9254 71.3633 47.7129 60.9414 43.5713 50.277C40.6477 42.7635 38.8205 35.1288 37.9678 27.6153L218.496 118.626L399.024 27.4941C398.05 37.0678 395.37 46.5203 391.106 55.8516C386.843 65.1829 380.752 74.393 373.2 83.3607C326.18 138.379 231.165 167.585 218.496 171.342Z" fill="#0071A3"/>
<path d="M392.081 36.8262C390.741 42.5219 388.792 48.0964 386.234 53.671C382.092 62.5175 376.367 71.3641 369.058 79.9683C324.596 132.199 235.306 160.799 218.374 165.889C201.32 160.799 109.96 131.472 65.9849 77.9081C58.1888 68.3344 52.2199 58.3972 48.3219 48.3388C46.8601 44.4609 45.642 40.7041 44.7893 36.8262L213.623 122.02L218.374 124.443L223.125 122.02L392.081 36.8262ZM404.628 18.7695L218.496 112.81L32.3643 18.7695C32.3643 30.5245 34.6787 41.6736 38.8204 52.0956C43.3275 63.7294 49.9054 74.5149 58.067 84.4522C109.107 146.742 218.496 176.674 218.496 176.674C218.496 176.674 325.327 147.348 377.098 86.6335C384.65 77.7869 391.106 68.2133 395.735 57.9125C401.339 45.9151 404.628 32.8271 404.628 18.7695Z" fill="#15284E"/>
<path d="M218.449 223.21L179.511 261.937L218.438 300.674L257.376 261.948L218.449 223.21Z" fill="#EC1847"/>
<path d="M218.493 308.04L172.082 261.868L218.493 215.696L264.904 261.868L218.493 308.04ZM186.943 261.868L218.493 293.255L250.043 261.868L218.493 230.481L186.943 261.868Z" fill="#15284E"/>
<path d="M129.203 298.101C79.9899 298.101 39.9131 258.231 39.9131 209.394C39.9131 160.435 79.9899 120.564 129.203 120.564C178.416 120.564 218.492 160.435 218.492 209.394C218.492 258.353 178.416 298.101 129.203 298.101Z" fill="white"/>
<path d="M129.203 125.775C175.493 125.775 213.133 163.222 213.133 209.394C213.133 255.444 175.493 292.891 129.203 292.891C82.9141 292.891 45.2736 255.444 45.2736 209.394C45.2736 163.343 82.9141 125.775 129.203 125.775ZM129.203 115.354C77.0671 115.354 34.6758 157.526 34.6758 209.394C34.6758 261.261 77.0671 303.434 129.203 303.434C181.34 303.434 223.731 261.261 223.731 209.394C223.731 157.526 181.462 115.354 129.203 115.354Z" fill="#15284E"/>
<path d="M307.781 298.101C258.568 298.101 218.491 258.231 218.491 209.394C218.491 160.435 258.568 120.564 307.781 120.564C356.994 120.564 397.07 160.435 397.07 209.394C396.949 258.353 356.872 298.101 307.781 298.101Z" fill="white"/>
<path d="M307.781 125.775C354.071 125.775 391.711 163.222 391.711 209.394C391.711 255.444 354.071 292.891 307.781 292.891C261.492 292.891 223.852 255.444 223.852 209.394C223.73 163.343 261.37 125.775 307.781 125.775ZM307.781 115.354C255.645 115.354 213.254 157.526 213.254 209.394C213.254 261.261 255.523 303.434 307.781 303.434C359.918 303.434 402.309 261.261 402.309 209.394C402.187 157.526 359.918 115.354 307.781 115.354Z" fill="#15284E"/>
<path d="M173.909 209.395C173.909 233.874 153.931 253.749 129.325 253.749C104.719 253.749 84.7412 233.874 84.7412 209.395C84.7412 184.915 104.719 165.041 129.325 165.041C153.931 164.919 173.909 184.915 173.909 209.395Z" fill="#FFCA05"/>
<path d="M129.204 258.959C101.674 258.959 79.3818 236.661 79.3818 209.394C79.3818 182.006 101.796 159.829 129.204 159.829C156.734 159.829 179.026 182.127 179.026 209.394C179.147 236.782 156.734 258.959 129.204 258.959ZM129.204 170.251C107.521 170.251 89.8579 187.823 89.8579 209.394C89.8579 230.965 107.521 248.537 129.204 248.537C150.887 248.537 168.55 230.965 168.55 209.394C168.671 187.823 151.008 170.251 129.204 170.251Z" fill="#15284E"/>
<path d="M145.039 209.395C145.039 217.999 137.974 225.028 129.325 225.028C120.676 225.028 113.611 217.999 113.611 209.395C113.611 200.79 120.676 193.762 129.325 193.762C137.974 193.762 145.039 200.669 145.039 209.395Z" fill="#15284E"/>
<path d="M352.365 209.395C352.365 233.874 332.388 253.749 307.781 253.749C283.175 253.749 263.197 233.874 263.197 209.395C263.197 184.915 283.175 165.041 307.781 165.041C332.388 164.919 352.365 184.915 352.365 209.395Z" fill="#FFCA05"/>
<path d="M307.783 258.959C280.253 258.959 257.961 236.661 257.961 209.394C257.961 182.006 280.375 159.829 307.783 159.829C335.313 159.829 357.605 182.127 357.605 209.394C357.605 236.782 335.191 258.959 307.783 258.959ZM307.783 170.251C286.1 170.251 268.437 187.823 268.437 209.394C268.437 230.965 286.1 248.537 307.783 248.537C329.466 248.537 347.129 230.965 347.129 209.394C347.129 187.823 329.466 170.251 307.783 170.251Z" fill="#15284E"/>
<path d="M323.497 209.395C323.497 217.999 316.432 225.028 307.783 225.028C299.134 225.028 292.069 217.999 292.069 209.395C292.069 200.79 299.134 193.762 307.783 193.762C316.432 193.762 323.497 200.669 323.497 209.395Z" fill="#15284E"/>
<path d="M396.952 594.522C293.41 593.553 209.115 510.42 209.115 409.108C209.115 307.918 293.41 224.664 396.952 223.694L402.19 223.694L402.19 594.522L396.952 594.522Z" fill="#0071A3"/>
<path d="M397.073 229.027L397.073 589.312C296.089 588.342 214.474 507.996 214.474 409.108C214.352 310.342 296.089 229.996 397.073 229.027ZM407.549 218.483L396.951 218.605C290.486 219.574 203.876 305.131 203.876 409.23C203.876 513.328 290.486 598.885 396.951 599.855L407.549 599.976L407.549 589.433L407.549 229.027L407.549 218.483Z" fill="#15284E"/>
</g>
</svg>
