<svg width="71" height="71" viewBox="0 0 71 71" fill="none" xmlns="http://www.w3.org/2000/svg">
<path d="M29.3164 63.3464C42.5813 67.4287 57.0826 58.5596 61.7057 43.5369C66.3289 28.5142 59.3234 13.0265 46.0584 8.94429C32.7934 4.86205 18.2922 13.7311 13.669 28.7538C9.04583 43.7765 16.0514 59.2642 29.3164 63.3464Z" fill="#FFB600"/>
<path d="M24.8623 61.9758C38.1272 66.058 52.6285 57.189 57.2516 42.1663C61.8748 27.1436 54.8693 11.6559 41.6043 7.57369C28.3393 3.49144 13.8381 12.3605 9.21492 27.3832C4.59173 42.4059 11.5973 57.8936 24.8623 61.9758Z" fill="#FFE524"/>
<path d="M26.1122 56.8257C36.817 60.1201 48.5463 52.876 52.3101 40.6456C56.074 28.4153 50.4472 15.83 39.7423 12.5356C29.0374 9.24118 17.3082 16.4852 13.5443 28.7156C9.78047 40.946 15.4073 53.5313 26.1122 56.8257Z" fill="#FFB600"/>
<path d="M35.5264 38.5773C35.5264 38.5773 41.8478 39.8635 44.2185 32.16C46.5892 24.4566 38.9681 21.4102 38.9681 21.4102L33.7401 19.8013C33.2965 19.6648 32.8168 19.7101 32.4066 19.9272C31.9964 20.1444 31.6893 20.5156 31.5527 20.9592L28.0908 32.2085L26.0072 31.5673C25.7872 31.4982 25.5556 31.4733 25.3259 31.494C25.0962 31.5147 24.8728 31.5806 24.6686 31.6879C24.4645 31.7953 24.2835 31.9419 24.1362 32.1194C23.9889 32.2969 23.8782 32.5018 23.8103 32.7222L23.6927 33.1045C23.6248 33.325 23.6013 33.5567 23.6233 33.7863C23.6453 34.0159 23.7125 34.2389 23.8209 34.4424C23.9294 34.646 24.0771 34.8261 24.2554 34.9723C24.4338 35.1186 24.6393 35.2282 24.8601 35.2948L26.9437 35.936L26.3142 37.9813L24.2307 37.3401C23.7845 37.2028 23.3021 37.2484 22.8896 37.4668C22.477 37.6851 22.1681 38.0585 22.0308 38.5046L21.9132 38.8869C21.7789 39.3321 21.8264 39.8124 22.0451 40.2228C22.2638 40.6332 22.6361 40.9404 23.0806 41.0772L25.1642 41.7184L24.2553 44.6717C24.1862 44.8917 24.1613 45.1233 24.182 45.353C24.2027 45.5827 24.2686 45.8061 24.3759 46.0103C24.4833 46.2144 24.6299 46.3954 24.8074 46.5427C24.9849 46.69 25.1898 46.8007 25.4102 46.8686L25.7925 46.9862C26.013 47.0541 26.2447 47.0777 26.4743 47.0556C26.7039 47.0336 26.9269 46.9664 27.1304 46.858C27.334 46.7495 27.5141 46.6018 27.6603 46.4235C27.8066 46.2451 27.9162 46.0396 27.9828 45.8188L28.8917 42.8655L35.0754 44.7685C35.519 44.905 35.9987 44.8597 36.4089 44.6426C36.8191 44.4255 37.1263 44.0543 37.2628 43.6107L37.3804 43.2284C37.4495 43.0083 37.4744 42.7767 37.4537 42.547C37.433 42.3173 37.3671 42.0939 37.2598 41.8898C37.1525 41.6856 37.0058 41.5047 36.8283 41.3574C36.6508 41.2101 36.446 41.0993 36.2255 41.0315L30.0417 39.1284L30.6712 37.0831L35.5264 38.5773ZM34.6625 24.1134L37.8357 25.0899C37.8357 25.0899 42.2153 26.6679 40.9005 30.9402C39.5857 35.2124 36.6677 34.8689 36.6677 34.8689L31.8124 33.3747L34.6625 24.1134Z" fill="#DD9900"/>
<path d="M34.4464 38.2451C34.4464 38.2451 40.7581 39.5283 43.1288 31.8249C45.4996 24.1214 37.8785 21.075 37.8785 21.075L32.66 19.4691C32.4399 19.4 32.2084 19.375 31.9787 19.3957C31.7489 19.4164 31.5256 19.4824 31.3214 19.5897C31.1172 19.697 30.9363 19.8436 30.789 20.0211C30.6417 20.1987 30.531 20.4035 30.4631 20.624L27.0012 31.8733L24.9176 31.2321C24.474 31.0956 23.9944 31.1409 23.5842 31.358C23.1739 31.5752 22.8668 31.9464 22.7303 32.39L22.6126 32.7723C22.4761 33.2159 22.5214 33.6955 22.7386 34.1057C22.9557 34.5159 23.3269 34.8231 23.7705 34.9596L25.8541 35.6008L25.2246 37.6461L23.141 37.0049C22.9206 36.9371 22.6889 36.9135 22.4593 36.9355C22.2297 36.9575 22.0067 37.0247 21.8032 37.1332C21.5996 37.2417 21.4195 37.3893 21.2732 37.5677C21.127 37.746 21.0174 37.9515 20.9508 38.1723L20.8331 38.5547C20.6966 38.9983 20.7419 39.4779 20.9591 39.8881C21.1762 40.2983 21.5474 40.6055 21.991 40.742L24.0746 41.3832L23.1657 44.3365C23.0977 44.5574 23.0739 44.7895 23.0956 45.0196C23.1174 45.2497 23.1842 45.4733 23.2923 45.6776C23.4005 45.8818 23.5478 46.0628 23.7258 46.2102C23.9039 46.3575 24.1093 46.4683 24.3302 46.5363L24.7029 46.651C25.149 46.7883 25.6314 46.7428 26.044 46.5244C26.4565 46.306 26.7654 45.9327 26.9027 45.4866L27.8116 42.5332L33.9858 44.4333C34.4303 44.5701 34.9109 44.5255 35.3225 44.309C35.7341 44.0926 36.0434 43.7221 36.1827 43.2784L36.3004 42.8961C36.4377 42.45 36.3921 41.9676 36.1737 41.555C35.9553 41.1425 35.582 40.8336 35.1359 40.6963L28.9617 38.7962L29.5911 36.7509L34.4464 38.2451ZM33.5825 23.7811L36.7461 24.7547C36.7461 24.7547 41.1257 26.3327 39.8109 30.605C38.4961 34.8772 35.5876 34.5367 35.5876 34.5367L30.7323 33.0425L33.5825 23.7811Z" fill="#FFE524"/>
<path d="M40.9305 47.2297C40.9305 47.2297 40.0054 50.4396 37.7108 51.4702C36.3518 52.1062 34.8284 52.303 33.3524 52.0332C34.7356 52.5802 35.9023 53.5638 36.6754 54.8345C37.8267 56.8733 36.7053 60.0751 36.7053 60.0751C36.7053 60.0751 38.0759 56.7094 39.7434 55.7787C41.0029 55.221 42.4222 55.1409 43.7364 55.5532C42.4774 54.9058 41.4879 53.8342 40.9427 52.5276C40.2157 50.5043 40.9305 47.2297 40.9305 47.2297Z" fill="white"/>
<path d="M32.2193 16.5818C31.9597 17.481 31.3758 18.252 30.5804 18.7454C29.8992 19.0642 29.1374 19.169 28.3954 19.046C29.0886 19.3203 29.6717 19.8161 30.0539 20.4563C30.3753 21.3068 30.3836 22.244 30.0773 23.1001C30.4033 22.2531 30.9335 21.4998 31.6207 20.907C32.259 20.6238 32.9782 20.5813 33.6454 20.7873C33.008 20.4555 32.5057 19.9126 32.2244 19.2513C32.0323 18.372 32.0306 17.4618 32.2193 16.5818Z" fill="white"/>
</svg>
